<?xml version="1.0" encoding="UTF-8" standalone="no"?>
<!DOCTYPE svg PUBLIC "-//W3C//DTD SVG 1.1//EN"
 "http://www.w3.org/Graphics/SVG/1.1/DTD/svg11.dtd">
<!-- Generated by graphviz version 2.40.1 (20161225.0304)
 -->
<!-- Title: dependencies Pages: 1 -->
<svg width="1889pt" height="284pt"
 viewBox="0.00 0.00 1889.00 284.00" xmlns="http://www.w3.org/2000/svg" xmlns:xlink="http://www.w3.org/1999/xlink">
<g id="graph0" class="graph" transform="scale(1 1) rotate(0) translate(4 280)">
<title>dependencies</title>
<polygon fill="#ffffff" stroke="transparent" points="-4,4 -4,-280 1885,-280 1885,4 -4,4"/>
<text text-anchor="start" x="919.5091" y="-42.4" font-family="sans-serif" font-weight="bold" font-size="14.00" fill="#000000">Legend</text>
<polygon fill="#ffffb3" stroke="transparent" points="706.5,-10 706.5,-30 726.5,-30 726.5,-10 706.5,-10"/>
<text text-anchor="start" x="730.129" y="-15.4" font-family="sans-serif" font-size="14.00" fill="#000000"> &#160;Declarations</text>
<polygon fill="#8dd3c7" stroke="transparent" points="819.5,-10 819.5,-30 839.5,-30 839.5,-10 819.5,-10"/>
<text text-anchor="start" x="843.2251" y="-15.4" font-family="sans-serif" font-size="14.00" fill="#000000"> &#160;Module</text>
<polygon fill="#80b1d3" stroke="transparent" points="905.5,-10 905.5,-30 925.5,-30 925.5,-10 905.5,-10"/>
<text text-anchor="start" x="929.2812" y="-15.4" font-family="sans-serif" font-size="14.00" fill="#000000"> &#160;Bootstrap</text>
<polygon fill="#fdb462" stroke="transparent" points="1002.5,-10 1002.5,-30 1022.5,-30 1022.5,-10 1002.5,-10"/>
<text text-anchor="start" x="1026.1732" y="-15.4" font-family="sans-serif" font-size="14.00" fill="#000000"> &#160;Providers</text>
<polygon fill="#fb8072" stroke="transparent" points="1098.5,-10 1098.5,-30 1118.5,-30 1118.5,-10 1098.5,-10"/>
<text text-anchor="start" x="1122.2258" y="-15.4" font-family="sans-serif" font-size="14.00" fill="#000000"> &#160;Exports</text>
<g id="clust1" class="cluster">
<title>cluster_ComponentsModule</title>
<polygon fill="none" stroke="#000000" stroke-dasharray="1,5" points="8,-70 8,-268 1873,-268 1873,-70 8,-70"/>
</g>
<g id="clust2" class="cluster">
<title>cluster_ComponentsModule_declarations</title>
<polygon fill="none" stroke="#000000" points="16,-78 16,-130 1865,-130 1865,-78 16,-78"/>
</g>
<g id="clust15" class="cluster">
<title>cluster_ComponentsModule_exports</title>
<polygon fill="none" stroke="#000000" points="67,-208 67,-260 1814,-260 1814,-208 67,-208"/>
</g>
<!-- BarHomeComponent -->
<g id="node1" class="node">
<title>BarHomeComponent</title>
<polygon fill="#ffffb3" stroke="#000000" points="1856.7562,-122 1721.2438,-122 1721.2438,-86 1856.7562,-86 1856.7562,-122"/>
<text text-anchor="middle" x="1789" y="-99.8" font-family="Times,serif" font-size="14.00" fill="#000000">BarHomeComponent</text>
</g>
<!-- ComponentsModule -->
<g id="node12" class="node">
<title>ComponentsModule</title>
<polygon fill="#8dd3c7" stroke="#000000" points="1003.3272,-187 1000.3272,-191 979.3272,-191 976.3272,-187 872.6728,-187 872.6728,-151 1003.3272,-151 1003.3272,-187"/>
<text text-anchor="middle" x="938" y="-164.8" font-family="Times,serif" font-size="14.00" fill="#000000">ComponentsModule</text>
</g>
<!-- BarHomeComponent&#45;&gt;ComponentsModule -->
<g id="edge1" class="edge">
<title>BarHomeComponent&#45;&gt;ComponentsModule</title>
<path fill="none" stroke="#000000" d="M1763.375,-122.2222C1763.375,-140.8285 1763.375,-167 1763.375,-167 1763.375,-167 1013.4557,-167 1013.4557,-167"/>
<polygon fill="#000000" stroke="#000000" points="1013.4557,-163.5001 1003.4557,-167 1013.4557,-170.5001 1013.4557,-163.5001"/>
</g>
<!-- ConfirmPagamentoComponent -->
<g id="node2" class="node">
<title>ConfirmPagamentoComponent</title>
<polygon fill="#ffffb3" stroke="#000000" points="1703.479,-122 1512.521,-122 1512.521,-86 1703.479,-86 1703.479,-122"/>
<text text-anchor="middle" x="1608" y="-99.8" font-family="Times,serif" font-size="14.00" fill="#000000">ConfirmPagamentoComponent</text>
</g>
<!-- ConfirmPagamentoComponent&#45;&gt;ComponentsModule -->
<g id="edge2" class="edge">
<title>ConfirmPagamentoComponent&#45;&gt;ComponentsModule</title>
<path fill="none" stroke="#000000" d="M1580.375,-122.0225C1580.375,-139.3734 1580.375,-163 1580.375,-163 1580.375,-163 1013.4277,-163 1013.4277,-163"/>
<polygon fill="#000000" stroke="#000000" points="1013.4278,-159.5001 1003.4277,-163 1013.4277,-166.5001 1013.4278,-159.5001"/>
</g>
<!-- DescriptionComponent -->
<g id="node3" class="node">
<title>DescriptionComponent</title>
<polygon fill="#ffffb3" stroke="#000000" points="1494.1456,-122 1347.8544,-122 1347.8544,-86 1494.1456,-86 1494.1456,-122"/>
<text text-anchor="middle" x="1421" y="-99.8" font-family="Times,serif" font-size="14.00" fill="#000000">DescriptionComponent</text>
</g>
<!-- DescriptionComponent&#45;&gt;ComponentsModule -->
<g id="edge3" class="edge">
<title>DescriptionComponent&#45;&gt;ComponentsModule</title>
<path fill="none" stroke="#000000" d="M1391.875,-122.0091C1391.875,-138.0494 1391.875,-159 1391.875,-159 1391.875,-159 1013.5126,-159 1013.5126,-159"/>
<polygon fill="#000000" stroke="#000000" points="1013.5126,-155.5001 1003.5126,-159 1013.5126,-162.5001 1013.5126,-155.5001"/>
</g>
<!-- FeedbackUsuarioComponent -->
<g id="node4" class="node">
<title>FeedbackUsuarioComponent</title>
<polygon fill="#ffffb3" stroke="#000000" points="1329.7906,-122 1150.2094,-122 1150.2094,-86 1329.7906,-86 1329.7906,-122"/>
<text text-anchor="middle" x="1240" y="-99.8" font-family="Times,serif" font-size="14.00" fill="#000000">FeedbackUsuarioComponent</text>
</g>
<!-- FeedbackUsuarioComponent&#45;&gt;ComponentsModule -->
<g id="edge4" class="edge">
<title>FeedbackUsuarioComponent&#45;&gt;ComponentsModule</title>
<path fill="none" stroke="#000000" d="M1209.375,-122.1243C1209.375,-136.7832 1209.375,-155 1209.375,-155 1209.375,-155 1013.3464,-155 1013.3464,-155"/>
<polygon fill="#000000" stroke="#000000" points="1013.3465,-151.5001 1003.3464,-155 1013.3464,-158.5001 1013.3465,-151.5001"/>
</g>
<!-- FooterComponent -->
<g id="node5" class="node">
<title>FooterComponent</title>
<polygon fill="#ffffb3" stroke="#000000" points="1131.8809,-122 1014.1191,-122 1014.1191,-86 1131.8809,-86 1131.8809,-122"/>
<text text-anchor="middle" x="1073" y="-99.8" font-family="Times,serif" font-size="14.00" fill="#000000">FooterComponent</text>
</g>
<!-- FooterComponent&#45;&gt;ComponentsModule -->
<g id="edge5" class="edge">
<title>FooterComponent&#45;&gt;ComponentsModule</title>
<path fill="none" stroke="#000000" d="M1013.9954,-104C1005.447,-104 999.4678,-104 999.4678,-104 999.4678,-104 999.4678,-140.8939 999.4678,-140.8939"/>
<polygon fill="#000000" stroke="#000000" points="995.9678,-140.8938 999.4678,-150.8939 1002.9678,-140.8939 995.9678,-140.8938"/>
</g>
<!-- HomeComponent -->
<g id="node6" class="node">
<title>HomeComponent</title>
<polygon fill="#ffffb3" stroke="#000000" points="995.5451,-122 880.4549,-122 880.4549,-86 995.5451,-86 995.5451,-122"/>
<text text-anchor="middle" x="938" y="-99.8" font-family="Times,serif" font-size="14.00" fill="#000000">HomeComponent</text>
</g>
<!-- HomeComponent&#45;&gt;ComponentsModule -->
<g id="edge6" class="edge">
<title>HomeComponent&#45;&gt;ComponentsModule</title>
<path fill="none" stroke="#000000" d="M938,-122.1061C938,-122.1061 938,-140.991 938,-140.991"/>
<polygon fill="#000000" stroke="#000000" points="934.5001,-140.9909 938,-150.991 941.5001,-140.991 934.5001,-140.9909"/>
</g>
<!-- ListComicsComponent -->
<g id="node7" class="node">
<title>ListComicsComponent</title>
<polygon fill="#ffffb3" stroke="#000000" points="861.8878,-122 716.1122,-122 716.1122,-86 861.8878,-86 861.8878,-122"/>
<text text-anchor="middle" x="789" y="-99.8" font-family="Times,serif" font-size="14.00" fill="#000000">ListComicsComponent</text>
</g>
<!-- ListComicsComponent&#45;&gt;ComponentsModule -->
<g id="edge7" class="edge">
<title>ListComicsComponent&#45;&gt;ComponentsModule</title>
<path fill="none" stroke="#000000" d="M862.0781,-104C870.7142,-104 876.5323,-104 876.5323,-104 876.5323,-104 876.5323,-140.8939 876.5323,-140.8939"/>
<polygon fill="#000000" stroke="#000000" points="873.0323,-140.8938 876.5323,-150.8939 880.0323,-140.8939 873.0323,-140.8938"/>
</g>
<!-- NumberPikerComponent -->
<g id="node8" class="node">
<title>NumberPikerComponent</title>
<polygon fill="#ffffb3" stroke="#000000" points="698.2534,-122 541.7466,-122 541.7466,-86 698.2534,-86 698.2534,-122"/>
<text text-anchor="middle" x="620" y="-99.8" font-family="Times,serif" font-size="14.00" fill="#000000">NumberPikerComponent</text>
</g>
<!-- NumberPikerComponent&#45;&gt;ComponentsModule -->
<g id="edge8" class="edge">
<title>NumberPikerComponent&#45;&gt;ComponentsModule</title>
<path fill="none" stroke="#000000" d="M650.625,-122.1243C650.625,-136.7832 650.625,-155 650.625,-155 650.625,-155 862.7902,-155 862.7902,-155"/>
<polygon fill="#000000" stroke="#000000" points="862.7902,-158.5001 872.7902,-155 862.7901,-151.5001 862.7902,-158.5001"/>
</g>
<!-- QuantidadeComicsComponent -->
<g id="node9" class="node">
<title>QuantidadeComicsComponent</title>
<polygon fill="#ffffb3" stroke="#000000" points="523.1413,-122 334.8587,-122 334.8587,-86 523.1413,-86 523.1413,-122"/>
<text text-anchor="middle" x="429" y="-99.8" font-family="Times,serif" font-size="14.00" fill="#000000">QuantidadeComicsComponent</text>
</g>
<!-- QuantidadeComicsComponent&#45;&gt;ComponentsModule -->
<g id="edge9" class="edge">
<title>QuantidadeComicsComponent&#45;&gt;ComponentsModule</title>
<path fill="none" stroke="#000000" d="M458.125,-122.0091C458.125,-138.0494 458.125,-159 458.125,-159 458.125,-159 862.7825,-159 862.7825,-159"/>
<polygon fill="#000000" stroke="#000000" points="862.7825,-162.5001 872.7825,-159 862.7825,-155.5001 862.7825,-162.5001"/>
</g>
<!-- RatingComponent -->
<g id="node10" class="node">
<title>RatingComponent</title>
<polygon fill="#ffffb3" stroke="#000000" points="316.1653,-122 197.8347,-122 197.8347,-86 316.1653,-86 316.1653,-122"/>
<text text-anchor="middle" x="257" y="-99.8" font-family="Times,serif" font-size="14.00" fill="#000000">RatingComponent</text>
</g>
<!-- RatingComponent&#45;&gt;ComponentsModule -->
<g id="edge10" class="edge">
<title>RatingComponent&#45;&gt;ComponentsModule</title>
<path fill="none" stroke="#000000" d="M284.625,-122.0225C284.625,-139.3734 284.625,-163 284.625,-163 284.625,-163 862.6621,-163 862.6621,-163"/>
<polygon fill="#000000" stroke="#000000" points="862.6621,-166.5001 872.6621,-163 862.662,-159.5001 862.6621,-166.5001"/>
</g>
<!-- ShowComicsComponent -->
<g id="node11" class="node">
<title>ShowComicsComponent</title>
<polygon fill="#ffffb3" stroke="#000000" points="179.9986,-122 24.0014,-122 24.0014,-86 179.9986,-86 179.9986,-122"/>
<text text-anchor="middle" x="102" y="-99.8" font-family="Times,serif" font-size="14.00" fill="#000000">ShowComicsComponent</text>
</g>
<!-- ShowComicsComponent&#45;&gt;ComponentsModule -->
<g id="edge11" class="edge">
<title>ShowComicsComponent&#45;&gt;ComponentsModule</title>
<path fill="none" stroke="#000000" d="M127.625,-122.2222C127.625,-140.8285 127.625,-167 127.625,-167 127.625,-167 862.7121,-167 862.7121,-167"/>
<polygon fill="#000000" stroke="#000000" points="862.7122,-170.5001 872.7121,-167 862.7121,-163.5001 862.7122,-170.5001"/>
</g>
<!-- BarHomeComponent  -->
<g id="node13" class="node">
<title>BarHomeComponent </title>
<polygon fill="#fb8072" stroke="#000000" points="1805.7562,-252 1666.2438,-252 1666.2438,-216 1805.7562,-216 1805.7562,-252"/>
<text text-anchor="middle" x="1736" y="-229.8" font-family="Times,serif" font-size="14.00" fill="#000000">BarHomeComponent </text>
</g>
<!-- ComponentsModule&#45;&gt;BarHomeComponent  -->
<g id="edge12" class="edge">
<title>ComponentsModule&#45;&gt;BarHomeComponent </title>
<path fill="none" stroke="#000000" stroke-dasharray="5,2" d="M1003.3042,-171C1185.299,-171 1684.9308,-171 1684.9308,-171 1684.9308,-171 1684.9308,-205.7778 1684.9308,-205.7778"/>
<polygon fill="#000000" stroke="#000000" points="1681.4308,-205.7778 1684.9308,-215.7778 1688.4308,-205.7778 1681.4308,-205.7778"/>
</g>
<!-- ConfirmPagamentoComponent  -->
<g id="node14" class="node">
<title>ConfirmPagamentoComponent </title>
<polygon fill="#fb8072" stroke="#000000" points="1648.4796,-252 1453.5204,-252 1453.5204,-216 1648.4796,-216 1648.4796,-252"/>
<text text-anchor="middle" x="1551" y="-229.8" font-family="Times,serif" font-size="14.00" fill="#000000">ConfirmPagamentoComponent </text>
</g>
<!-- ComponentsModule&#45;&gt;ConfirmPagamentoComponent  -->
<g id="edge13" class="edge">
<title>ComponentsModule&#45;&gt;ConfirmPagamentoComponent </title>
<path fill="none" stroke="#000000" stroke-dasharray="5,2" d="M1003.1933,-175C1146.0493,-175 1474.0416,-175 1474.0416,-175 1474.0416,-175 1474.0416,-205.9775 1474.0416,-205.9775"/>
<polygon fill="#000000" stroke="#000000" points="1470.5416,-205.9774 1474.0416,-215.9775 1477.5416,-205.9775 1470.5416,-205.9774"/>
</g>
<!-- DescriptionComponent  -->
<g id="node15" class="node">
<title>DescriptionComponent </title>
<polygon fill="#fb8072" stroke="#000000" points="1436.1453,-252 1285.8547,-252 1285.8547,-216 1436.1453,-216 1436.1453,-252"/>
<text text-anchor="middle" x="1361" y="-229.8" font-family="Times,serif" font-size="14.00" fill="#000000">DescriptionComponent </text>
</g>
<!-- ComponentsModule&#45;&gt;DescriptionComponent  -->
<g id="edge14" class="edge">
<title>ComponentsModule&#45;&gt;DescriptionComponent </title>
<path fill="none" stroke="#000000" stroke-dasharray="5,2" d="M1003.2592,-179C1109.4175,-179 1307.7863,-179 1307.7863,-179 1307.7863,-179 1307.7863,-205.9909 1307.7863,-205.9909"/>
<polygon fill="#000000" stroke="#000000" points="1304.2864,-205.9909 1307.7863,-215.9909 1311.2864,-205.991 1304.2864,-205.9909"/>
</g>
<!-- FeedbackUsuarioComponent  -->
<g id="node16" class="node">
<title>FeedbackUsuarioComponent </title>
<polygon fill="#fb8072" stroke="#000000" points="1268.2905,-252 1085.7095,-252 1085.7095,-216 1268.2905,-216 1268.2905,-252"/>
<text text-anchor="middle" x="1177" y="-229.8" font-family="Times,serif" font-size="14.00" fill="#000000">FeedbackUsuarioComponent </text>
</g>
<!-- ComponentsModule&#45;&gt;FeedbackUsuarioComponent  -->
<g id="edge15" class="edge">
<title>ComponentsModule&#45;&gt;FeedbackUsuarioComponent </title>
<path fill="none" stroke="#000000" stroke-dasharray="5,2" d="M1003.5367,-183C1051.6955,-183 1108.7726,-183 1108.7726,-183 1108.7726,-183 1108.7726,-205.8757 1108.7726,-205.8757"/>
<polygon fill="#000000" stroke="#000000" points="1105.2727,-205.8757 1108.7726,-215.8757 1112.2727,-205.8757 1105.2727,-205.8757"/>
</g>
<!-- HomeComponent  -->
<g id="node17" class="node">
<title>HomeComponent </title>
<polygon fill="#fb8072" stroke="#000000" points="1067.5442,-252 948.4558,-252 948.4558,-216 1067.5442,-216 1067.5442,-252"/>
<text text-anchor="middle" x="1008" y="-229.8" font-family="Times,serif" font-size="14.00" fill="#000000">HomeComponent </text>
</g>
<!-- ComponentsModule&#45;&gt;HomeComponent  -->
<g id="edge16" class="edge">
<title>ComponentsModule&#45;&gt;HomeComponent </title>
<path fill="none" stroke="#000000" stroke-dasharray="5,2" d="M975.8207,-187.1061C975.8207,-187.1061 975.8207,-205.991 975.8207,-205.991"/>
<polygon fill="#000000" stroke="#000000" points="972.3207,-205.9909 975.8207,-215.991 979.3207,-205.991 972.3207,-205.9909"/>
</g>
<!-- ListComicsComponent  -->
<g id="node18" class="node">
<title>ListComicsComponent </title>
<polygon fill="#fb8072" stroke="#000000" points="930.8883,-252 781.1117,-252 781.1117,-216 930.8883,-216 930.8883,-252"/>
<text text-anchor="middle" x="856" y="-229.8" font-family="Times,serif" font-size="14.00" fill="#000000">ListComicsComponent </text>
</g>
<!-- ComponentsModule&#45;&gt;ListComicsComponent  -->
<g id="edge17" class="edge">
<title>ComponentsModule&#45;&gt;ListComicsComponent </title>
<path fill="none" stroke="#000000" stroke-dasharray="5,2" d="M901.7653,-187.1061C901.7653,-187.1061 901.7653,-205.991 901.7653,-205.991"/>
<polygon fill="#000000" stroke="#000000" points="898.2653,-205.9909 901.7653,-215.991 905.2653,-205.991 898.2653,-205.9909"/>
</g>
<!-- NumberPikerComponent  -->
<g id="node19" class="node">
<title>NumberPikerComponent </title>
<polygon fill="#fb8072" stroke="#000000" points="763.2534,-252 602.7466,-252 602.7466,-216 763.2534,-216 763.2534,-252"/>
<text text-anchor="middle" x="683" y="-229.8" font-family="Times,serif" font-size="14.00" fill="#000000">NumberPikerComponent </text>
</g>
<!-- ComponentsModule&#45;&gt;NumberPikerComponent  -->
<g id="edge18" class="edge">
<title>ComponentsModule&#45;&gt;NumberPikerComponent </title>
<path fill="none" stroke="#000000" stroke-dasharray="5,2" d="M872.7588,-183C814.9303,-183 739.5914,-183 739.5914,-183 739.5914,-183 739.5914,-205.8757 739.5914,-205.8757"/>
<polygon fill="#000000" stroke="#000000" points="736.0914,-205.8757 739.5914,-215.8757 743.0914,-205.8757 736.0914,-205.8757"/>
</g>
<!-- QuantidadeComicsComponent  -->
<g id="node20" class="node">
<title>QuantidadeComicsComponent </title>
<polygon fill="#fb8072" stroke="#000000" points="585.1411,-252 392.8589,-252 392.8589,-216 585.1411,-216 585.1411,-252"/>
<text text-anchor="middle" x="489" y="-229.8" font-family="Times,serif" font-size="14.00" fill="#000000">QuantidadeComicsComponent </text>
</g>
<!-- ComponentsModule&#45;&gt;QuantidadeComicsComponent  -->
<g id="edge19" class="edge">
<title>ComponentsModule&#45;&gt;QuantidadeComicsComponent </title>
<path fill="none" stroke="#000000" stroke-dasharray="5,2" d="M872.7404,-179C765.3998,-179 563.347,-179 563.347,-179 563.347,-179 563.347,-205.9909 563.347,-205.9909"/>
<polygon fill="#000000" stroke="#000000" points="559.847,-205.9909 563.347,-215.9909 566.847,-205.991 559.847,-205.9909"/>
</g>
<!-- RatingComponent  -->
<g id="node21" class="node">
<title>RatingComponent </title>
<polygon fill="#fb8072" stroke="#000000" points="375.1649,-252 252.8351,-252 252.8351,-216 375.1649,-216 375.1649,-252"/>
<text text-anchor="middle" x="314" y="-229.8" font-family="Times,serif" font-size="14.00" fill="#000000">RatingComponent </text>
</g>
<!-- ComponentsModule&#45;&gt;RatingComponent  -->
<g id="edge20" class="edge">
<title>ComponentsModule&#45;&gt;RatingComponent </title>
<path fill="none" stroke="#000000" stroke-dasharray="5,2" d="M872.8062,-175C720.6433,-175 354.881,-175 354.881,-175 354.881,-175 354.881,-205.9775 354.881,-205.9775"/>
<polygon fill="#000000" stroke="#000000" points="351.381,-205.9774 354.881,-215.9775 358.381,-205.9775 351.381,-205.9774"/>
</g>
<!-- ShowComicsComponent  -->
<g id="node22" class="node">
<title>ShowComicsComponent </title>
<polygon fill="#fb8072" stroke="#000000" points="234.9994,-252 75.0006,-252 75.0006,-216 234.9994,-216 234.9994,-252"/>
<text text-anchor="middle" x="155" y="-229.8" font-family="Times,serif" font-size="14.00" fill="#000000">ShowComicsComponent </text>
</g>
<!-- ComponentsModule&#45;&gt;ShowComicsComponent  -->
<g id="edge21" class="edge">
<title>ComponentsModule&#45;&gt;ShowComicsComponent </title>
<path fill="none" stroke="#000000" stroke-dasharray="5,2" d="M872.6728,-171C694.9972,-171 216.2085,-171 216.2084,-171 216.2084,-171 216.2084,-205.7778 216.2084,-205.7778"/>
<polygon fill="#000000" stroke="#000000" points="212.7084,-205.7778 216.2085,-215.7778 219.7084,-205.7778 212.7084,-205.7778"/>
</g>
</g>
</svg>
