<?xml version="1.0" encoding="UTF-8" standalone="no"?>
<!DOCTYPE svg PUBLIC "-//W3C//DTD SVG 1.1//EN"
 "http://www.w3.org/Graphics/SVG/1.1/DTD/svg11.dtd">
<!-- Generated by graphviz version 2.40.1 (20161225.0304)
 -->
<!-- Title: dependencies Pages: 1 -->
<svg width="1257pt" height="284pt"
 viewBox="0.00 0.00 1257.00 284.00" xmlns="http://www.w3.org/2000/svg" xmlns:xlink="http://www.w3.org/1999/xlink">
<g id="graph0" class="graph" transform="scale(1 1) rotate(0) translate(4 280)">
<title>dependencies</title>
<polygon fill="#ffffff" stroke="transparent" points="-4,4 -4,-280 1253,-280 1253,4 -4,4"/>
<text text-anchor="start" x="603.5091" y="-42.4" font-family="sans-serif" font-weight="bold" font-size="14.00" fill="#000000">Legend</text>
<polygon fill="#ffffb3" stroke="transparent" points="390.5,-10 390.5,-30 410.5,-30 410.5,-10 390.5,-10"/>
<text text-anchor="start" x="414.129" y="-15.4" font-family="sans-serif" font-size="14.00" fill="#000000"> &#160;Declarations</text>
<polygon fill="#8dd3c7" stroke="transparent" points="503.5,-10 503.5,-30 523.5,-30 523.5,-10 503.5,-10"/>
<text text-anchor="start" x="527.2251" y="-15.4" font-family="sans-serif" font-size="14.00" fill="#000000"> &#160;Module</text>
<polygon fill="#80b1d3" stroke="transparent" points="589.5,-10 589.5,-30 609.5,-30 609.5,-10 589.5,-10"/>
<text text-anchor="start" x="613.2812" y="-15.4" font-family="sans-serif" font-size="14.00" fill="#000000"> &#160;Bootstrap</text>
<polygon fill="#fdb462" stroke="transparent" points="686.5,-10 686.5,-30 706.5,-30 706.5,-10 686.5,-10"/>
<text text-anchor="start" x="710.1732" y="-15.4" font-family="sans-serif" font-size="14.00" fill="#000000"> &#160;Providers</text>
<polygon fill="#fb8072" stroke="transparent" points="782.5,-10 782.5,-30 802.5,-30 802.5,-10 782.5,-10"/>
<text text-anchor="start" x="806.2258" y="-15.4" font-family="sans-serif" font-size="14.00" fill="#000000"> &#160;Exports</text>
<g id="clust1" class="cluster">
<title>cluster_ComponentsModule</title>
<polygon fill="none" stroke="#000000" stroke-dasharray="1,5" points="8,-70 8,-268 1241,-268 1241,-70 8,-70"/>
</g>
<g id="clust2" class="cluster">
<title>cluster_ComponentsModule_declarations</title>
<polygon fill="none" stroke="#000000" points="29,-78 29,-130 1220,-130 1220,-78 29,-78"/>
</g>
<g id="clust11" class="cluster">
<title>cluster_ComponentsModule_exports</title>
<polygon fill="none" stroke="#000000" points="16,-208 16,-260 1233,-260 1233,-208 16,-208"/>
</g>
<!-- BarHomeComponent -->
<g id="node1" class="node">
<title>BarHomeComponent</title>
<polygon fill="#ffffb3" stroke="#000000" points="1211.7562,-122 1076.2438,-122 1076.2438,-86 1211.7562,-86 1211.7562,-122"/>
<text text-anchor="middle" x="1144" y="-99.8" font-family="Times,serif" font-size="14.00" fill="#000000">BarHomeComponent</text>
</g>
<!-- ComponentsModule -->
<g id="node8" class="node">
<title>ComponentsModule</title>
<polygon fill="#8dd3c7" stroke="#000000" points="704.3272,-187 701.3272,-191 680.3272,-191 677.3272,-187 573.6728,-187 573.6728,-151 704.3272,-151 704.3272,-187"/>
<text text-anchor="middle" x="639" y="-164.8" font-family="Times,serif" font-size="14.00" fill="#000000">ComponentsModule</text>
</g>
<!-- BarHomeComponent&#45;&gt;ComponentsModule -->
<g id="edge1" class="edge">
<title>BarHomeComponent&#45;&gt;ComponentsModule</title>
<path fill="none" stroke="#000000" d="M1080.747,-122.0225C1080.747,-139.3734 1080.747,-163 1080.747,-163 1080.747,-163 714.1813,-163 714.1813,-163"/>
<polygon fill="#000000" stroke="#000000" points="714.1813,-159.5001 704.1813,-163 714.1813,-166.5001 714.1813,-159.5001"/>
</g>
<!-- DescriptionComponent -->
<g id="node2" class="node">
<title>DescriptionComponent</title>
<polygon fill="#ffffb3" stroke="#000000" points="1058.1456,-122 911.8544,-122 911.8544,-86 1058.1456,-86 1058.1456,-122"/>
<text text-anchor="middle" x="985" y="-99.8" font-family="Times,serif" font-size="14.00" fill="#000000">DescriptionComponent</text>
</g>
<!-- DescriptionComponent&#45;&gt;ComponentsModule -->
<g id="edge2" class="edge">
<title>DescriptionComponent&#45;&gt;ComponentsModule</title>
<path fill="none" stroke="#000000" d="M1011.1909,-122.2396C1011.1909,-137.5706 1011.1909,-157 1011.1909,-157 1011.1909,-157 714.2566,-157 714.2566,-157"/>
<polygon fill="#000000" stroke="#000000" points="714.2566,-153.5001 704.2566,-157 714.2566,-160.5001 714.2566,-153.5001"/>
</g>
<!-- FeedbackUsuarioComponent -->
<g id="node3" class="node">
<title>FeedbackUsuarioComponent</title>
<polygon fill="#ffffb3" stroke="#000000" points="893.7906,-122 714.2094,-122 714.2094,-86 893.7906,-86 893.7906,-122"/>
<text text-anchor="middle" x="804" y="-99.8" font-family="Times,serif" font-size="14.00" fill="#000000">FeedbackUsuarioComponent</text>
</g>
<!-- FeedbackUsuarioComponent&#45;&gt;ComponentsModule -->
<g id="edge3" class="edge">
<title>FeedbackUsuarioComponent&#45;&gt;ComponentsModule</title>
<path fill="none" stroke="#000000" d="M714.0028,-104C705.7821,-104 700.4678,-104 700.4678,-104 700.4678,-104 700.4678,-140.8939 700.4678,-140.8939"/>
<polygon fill="#000000" stroke="#000000" points="696.9678,-140.8938 700.4678,-150.8939 703.9678,-140.8939 696.9678,-140.8938"/>
</g>
<!-- HomeComponent -->
<g id="node4" class="node">
<title>HomeComponent</title>
<polygon fill="#ffffb3" stroke="#000000" points="696.5451,-122 581.4549,-122 581.4549,-86 696.5451,-86 696.5451,-122"/>
<text text-anchor="middle" x="639" y="-99.8" font-family="Times,serif" font-size="14.00" fill="#000000">HomeComponent</text>
</g>
<!-- HomeComponent&#45;&gt;ComponentsModule -->
<g id="edge4" class="edge">
<title>HomeComponent&#45;&gt;ComponentsModule</title>
<path fill="none" stroke="#000000" d="M639,-122.1061C639,-122.1061 639,-140.991 639,-140.991"/>
<polygon fill="#000000" stroke="#000000" points="635.5001,-140.9909 639,-150.991 642.5001,-140.991 635.5001,-140.9909"/>
</g>
<!-- ListComicsComponent -->
<g id="node5" class="node">
<title>ListComicsComponent</title>
<polygon fill="#ffffb3" stroke="#000000" points="562.8878,-122 417.1122,-122 417.1122,-86 562.8878,-86 562.8878,-122"/>
<text text-anchor="middle" x="490" y="-99.8" font-family="Times,serif" font-size="14.00" fill="#000000">ListComicsComponent</text>
</g>
<!-- ListComicsComponent&#45;&gt;ComponentsModule -->
<g id="edge5" class="edge">
<title>ListComicsComponent&#45;&gt;ComponentsModule</title>
<path fill="none" stroke="#000000" d="M563.0781,-104C571.7142,-104 577.5323,-104 577.5323,-104 577.5323,-104 577.5323,-140.8939 577.5323,-140.8939"/>
<polygon fill="#000000" stroke="#000000" points="574.0323,-140.8938 577.5323,-150.8939 581.0323,-140.8939 574.0323,-140.8938"/>
</g>
<!-- QuantidadeComicsComponent -->
<g id="node6" class="node">
<title>QuantidadeComicsComponent</title>
<polygon fill="#ffffb3" stroke="#000000" points="399.1413,-122 210.8587,-122 210.8587,-86 399.1413,-86 399.1413,-122"/>
<text text-anchor="middle" x="305" y="-99.8" font-family="Times,serif" font-size="14.00" fill="#000000">QuantidadeComicsComponent</text>
</g>
<!-- QuantidadeComicsComponent&#45;&gt;ComponentsModule -->
<g id="edge6" class="edge">
<title>QuantidadeComicsComponent&#45;&gt;ComponentsModule</title>
<path fill="none" stroke="#000000" d="M332.9402,-122.2396C332.9402,-137.5706 332.9402,-157 332.9402,-157 332.9402,-157 563.7179,-157 563.7179,-157"/>
<polygon fill="#000000" stroke="#000000" points="563.7179,-160.5001 573.7179,-157 563.7179,-153.5001 563.7179,-160.5001"/>
</g>
<!-- ShowComicsComponent -->
<g id="node7" class="node">
<title>ShowComicsComponent</title>
<polygon fill="#ffffb3" stroke="#000000" points="192.9986,-122 37.0014,-122 37.0014,-86 192.9986,-86 192.9986,-122"/>
<text text-anchor="middle" x="115" y="-99.8" font-family="Times,serif" font-size="14.00" fill="#000000">ShowComicsComponent</text>
</g>
<!-- ShowComicsComponent&#45;&gt;ComponentsModule -->
<g id="edge7" class="edge">
<title>ShowComicsComponent&#45;&gt;ComponentsModule</title>
<path fill="none" stroke="#000000" d="M188.3743,-122.0225C188.3743,-139.3734 188.3743,-163 188.3743,-163 188.3743,-163 563.4752,-163 563.4752,-163"/>
<polygon fill="#000000" stroke="#000000" points="563.4752,-166.5001 573.4752,-163 563.4751,-159.5001 563.4752,-166.5001"/>
</g>
<!-- BarHomeComponent  -->
<g id="node9" class="node">
<title>BarHomeComponent </title>
<polygon fill="#fb8072" stroke="#000000" points="1224.7562,-252 1085.2438,-252 1085.2438,-216 1224.7562,-216 1224.7562,-252"/>
<text text-anchor="middle" x="1155" y="-229.8" font-family="Times,serif" font-size="14.00" fill="#000000">BarHomeComponent </text>
</g>
<!-- ComponentsModule&#45;&gt;BarHomeComponent  -->
<g id="edge8" class="edge">
<title>ComponentsModule&#45;&gt;BarHomeComponent </title>
<path fill="none" stroke="#000000" stroke-dasharray="5,2" d="M704.3214,-169C841.8368,-169 1148.625,-169 1148.625,-169 1148.625,-169 1148.625,-205.8939 1148.625,-205.8939"/>
<polygon fill="#000000" stroke="#000000" points="1145.1251,-205.8938 1148.625,-215.8939 1152.1251,-205.8939 1145.1251,-205.8938"/>
</g>
<!-- DescriptionComponent  -->
<g id="node10" class="node">
<title>DescriptionComponent </title>
<polygon fill="#fb8072" stroke="#000000" points="1067.1453,-252 916.8547,-252 916.8547,-216 1067.1453,-216 1067.1453,-252"/>
<text text-anchor="middle" x="992" y="-229.8" font-family="Times,serif" font-size="14.00" fill="#000000">DescriptionComponent </text>
</g>
<!-- ComponentsModule&#45;&gt;DescriptionComponent  -->
<g id="edge9" class="edge">
<title>ComponentsModule&#45;&gt;DescriptionComponent </title>
<path fill="none" stroke="#000000" stroke-dasharray="5,2" d="M704.3895,-175C799.3121,-175 964.0591,-175 964.0591,-175 964.0591,-175 964.0591,-205.9775 964.0591,-205.9775"/>
<polygon fill="#000000" stroke="#000000" points="960.5592,-205.9774 964.0591,-215.9775 967.5592,-205.9775 960.5592,-205.9774"/>
</g>
<!-- FeedbackUsuarioComponent  -->
<g id="node11" class="node">
<title>FeedbackUsuarioComponent </title>
<polygon fill="#fb8072" stroke="#000000" points="899.2905,-252 716.7095,-252 716.7095,-216 899.2905,-216 899.2905,-252"/>
<text text-anchor="middle" x="808" y="-229.8" font-family="Times,serif" font-size="14.00" fill="#000000">FeedbackUsuarioComponent </text>
</g>
<!-- ComponentsModule&#45;&gt;FeedbackUsuarioComponent  -->
<g id="edge10" class="edge">
<title>ComponentsModule&#45;&gt;FeedbackUsuarioComponent </title>
<path fill="none" stroke="#000000" stroke-dasharray="5,2" d="M704.1802,-181C750.7211,-181 805.125,-181 805.125,-181 805.125,-181 805.125,-205.7604 805.125,-205.7604"/>
<polygon fill="#000000" stroke="#000000" points="801.6251,-205.7604 805.125,-215.7604 808.6251,-205.7604 801.6251,-205.7604"/>
</g>
<!-- HomeComponent  -->
<g id="node12" class="node">
<title>HomeComponent </title>
<polygon fill="#fb8072" stroke="#000000" points="698.5442,-252 579.4558,-252 579.4558,-216 698.5442,-216 698.5442,-252"/>
<text text-anchor="middle" x="639" y="-229.8" font-family="Times,serif" font-size="14.00" fill="#000000">HomeComponent </text>
</g>
<!-- ComponentsModule&#45;&gt;HomeComponent  -->
<g id="edge11" class="edge">
<title>ComponentsModule&#45;&gt;HomeComponent </title>
<path fill="none" stroke="#000000" stroke-dasharray="5,2" d="M639,-187.1061C639,-187.1061 639,-205.991 639,-205.991"/>
<polygon fill="#000000" stroke="#000000" points="635.5001,-205.9909 639,-215.991 642.5001,-205.991 635.5001,-205.9909"/>
</g>
<!-- ListComicsComponent  -->
<g id="node13" class="node">
<title>ListComicsComponent </title>
<polygon fill="#fb8072" stroke="#000000" points="561.8883,-252 412.1117,-252 412.1117,-216 561.8883,-216 561.8883,-252"/>
<text text-anchor="middle" x="487" y="-229.8" font-family="Times,serif" font-size="14.00" fill="#000000">ListComicsComponent </text>
</g>
<!-- ComponentsModule&#45;&gt;ListComicsComponent  -->
<g id="edge12" class="edge">
<title>ComponentsModule&#45;&gt;ListComicsComponent </title>
<path fill="none" stroke="#000000" stroke-dasharray="5,2" d="M573.8076,-181C533.4867,-181 489.375,-181 489.375,-181 489.375,-181 489.375,-205.7604 489.375,-205.7604"/>
<polygon fill="#000000" stroke="#000000" points="485.8751,-205.7604 489.375,-215.7604 492.8751,-205.7604 485.8751,-205.7604"/>
</g>
<!-- QuantidadeComicsComponent  -->
<g id="node14" class="node">
<title>QuantidadeComicsComponent </title>
<polygon fill="#fb8072" stroke="#000000" points="394.1411,-252 201.8589,-252 201.8589,-216 394.1411,-216 394.1411,-252"/>
<text text-anchor="middle" x="298" y="-229.8" font-family="Times,serif" font-size="14.00" fill="#000000">QuantidadeComicsComponent </text>
</g>
<!-- ComponentsModule&#45;&gt;QuantidadeComicsComponent  -->
<g id="edge13" class="edge">
<title>ComponentsModule&#45;&gt;QuantidadeComicsComponent </title>
<path fill="none" stroke="#000000" stroke-dasharray="5,2" d="M573.7769,-175C468.2611,-175 271.8098,-175 271.8098,-175 271.8098,-175 271.8098,-205.9775 271.8098,-205.9775"/>
<polygon fill="#000000" stroke="#000000" points="268.3099,-205.9774 271.8098,-215.9775 275.3099,-205.9775 268.3099,-205.9774"/>
</g>
<!-- ShowComicsComponent  -->
<g id="node15" class="node">
<title>ShowComicsComponent </title>
<polygon fill="#fb8072" stroke="#000000" points="183.9994,-252 24.0006,-252 24.0006,-216 183.9994,-216 183.9994,-252"/>
<text text-anchor="middle" x="104" y="-229.8" font-family="Times,serif" font-size="14.00" fill="#000000">ShowComicsComponent </text>
</g>
<!-- ComponentsModule&#45;&gt;ShowComicsComponent  -->
<g id="edge14" class="edge">
<title>ComponentsModule&#45;&gt;ShowComicsComponent </title>
<path fill="none" stroke="#000000" stroke-dasharray="5,2" d="M573.65,-169C432.216,-169 110.375,-169 110.375,-169 110.375,-169 110.375,-205.8939 110.375,-205.8939"/>
<polygon fill="#000000" stroke="#000000" points="106.8751,-205.8938 110.375,-215.8939 113.8751,-205.8939 106.8751,-205.8938"/>
</g>
</g>
</svg>
