<?xml version="1.0" encoding="UTF-8" standalone="no"?>
<!DOCTYPE svg PUBLIC "-//W3C//DTD SVG 1.1//EN"
 "http://www.w3.org/Graphics/SVG/1.1/DTD/svg11.dtd">
<!-- Generated by graphviz version 2.40.1 (20161225.0304)
 -->
<!-- Title: dependencies Pages: 1 -->
<svg width="1368pt" height="284pt"
 viewBox="0.00 0.00 1368.00 284.00" xmlns="http://www.w3.org/2000/svg" xmlns:xlink="http://www.w3.org/1999/xlink">
<g id="graph0" class="graph" transform="scale(1 1) rotate(0) translate(4 280)">
<title>dependencies</title>
<polygon fill="#ffffff" stroke="transparent" points="-4,4 -4,-280 1364,-280 1364,4 -4,4"/>
<text text-anchor="start" x="659.0091" y="-42.4" font-family="sans-serif" font-weight="bold" font-size="14.00" fill="#000000">Legend</text>
<polygon fill="#ffffb3" stroke="transparent" points="446,-10 446,-30 466,-30 466,-10 446,-10"/>
<text text-anchor="start" x="469.629" y="-15.4" font-family="sans-serif" font-size="14.00" fill="#000000"> &#160;Declarations</text>
<polygon fill="#8dd3c7" stroke="transparent" points="559,-10 559,-30 579,-30 579,-10 559,-10"/>
<text text-anchor="start" x="582.7251" y="-15.4" font-family="sans-serif" font-size="14.00" fill="#000000"> &#160;Module</text>
<polygon fill="#80b1d3" stroke="transparent" points="645,-10 645,-30 665,-30 665,-10 645,-10"/>
<text text-anchor="start" x="668.7812" y="-15.4" font-family="sans-serif" font-size="14.00" fill="#000000"> &#160;Bootstrap</text>
<polygon fill="#fdb462" stroke="transparent" points="742,-10 742,-30 762,-30 762,-10 742,-10"/>
<text text-anchor="start" x="765.6732" y="-15.4" font-family="sans-serif" font-size="14.00" fill="#000000"> &#160;Providers</text>
<polygon fill="#fb8072" stroke="transparent" points="838,-10 838,-30 858,-30 858,-10 838,-10"/>
<text text-anchor="start" x="861.7258" y="-15.4" font-family="sans-serif" font-size="14.00" fill="#000000"> &#160;Exports</text>
<g id="clust1" class="cluster">
<title>cluster_ComponentsModule</title>
<polygon fill="none" stroke="#000000" stroke-dasharray="1,5" points="8,-70 8,-268 1352,-268 1352,-70 8,-70"/>
</g>
<g id="clust2" class="cluster">
<title>cluster_ComponentsModule_declarations</title>
<polygon fill="none" stroke="#000000" points="16,-78 16,-130 1344,-130 1344,-78 16,-78"/>
</g>
<g id="clust12" class="cluster">
<title>cluster_ComponentsModule_exports</title>
<polygon fill="none" stroke="#000000" points="71,-208 71,-260 1288,-260 1288,-208 71,-208"/>
</g>
<!-- BarHomeComponent -->
<g id="node1" class="node">
<title>BarHomeComponent</title>
<polygon fill="#ffffb3" stroke="#000000" points="1335.7562,-122 1200.2438,-122 1200.2438,-86 1335.7562,-86 1335.7562,-122"/>
<text text-anchor="middle" x="1268" y="-99.8" font-family="Times,serif" font-size="14.00" fill="#000000">BarHomeComponent</text>
</g>
<!-- ComponentsModule -->
<g id="node9" class="node">
<title>ComponentsModule</title>
<polygon fill="#8dd3c7" stroke="#000000" points="759.3272,-187 756.3272,-191 735.3272,-191 732.3272,-187 628.6728,-187 628.6728,-151 759.3272,-151 759.3272,-187"/>
<text text-anchor="middle" x="694" y="-164.8" font-family="Times,serif" font-size="14.00" fill="#000000">ComponentsModule</text>
</g>
<!-- BarHomeComponent&#45;&gt;ComponentsModule -->
<g id="edge1" class="edge">
<title>BarHomeComponent&#45;&gt;ComponentsModule</title>
<path fill="none" stroke="#000000" d="M1239.875,-122.2222C1239.875,-140.8285 1239.875,-167 1239.875,-167 1239.875,-167 769.3031,-167 769.3031,-167"/>
<polygon fill="#000000" stroke="#000000" points="769.3031,-163.5001 759.3031,-167 769.303,-170.5001 769.3031,-163.5001"/>
</g>
<!-- DescriptionComponent -->
<g id="node2" class="node">
<title>DescriptionComponent</title>
<polygon fill="#ffffb3" stroke="#000000" points="1182.1456,-122 1035.8544,-122 1035.8544,-86 1182.1456,-86 1182.1456,-122"/>
<text text-anchor="middle" x="1109" y="-99.8" font-family="Times,serif" font-size="14.00" fill="#000000">DescriptionComponent</text>
</g>
<!-- DescriptionComponent&#45;&gt;ComponentsModule -->
<g id="edge2" class="edge">
<title>DescriptionComponent&#45;&gt;ComponentsModule</title>
<path fill="none" stroke="#000000" d="M1078.875,-122.0336C1078.875,-139.0597 1078.875,-162 1078.875,-162 1078.875,-162 769.2888,-162 769.2888,-162"/>
<polygon fill="#000000" stroke="#000000" points="769.2888,-158.5001 759.2888,-162 769.2888,-165.5001 769.2888,-158.5001"/>
</g>
<!-- FeedbackUsuarioComponent -->
<g id="node3" class="node">
<title>FeedbackUsuarioComponent</title>
<polygon fill="#ffffb3" stroke="#000000" points="1017.7906,-122 838.2094,-122 838.2094,-86 1017.7906,-86 1017.7906,-122"/>
<text text-anchor="middle" x="928" y="-99.8" font-family="Times,serif" font-size="14.00" fill="#000000">FeedbackUsuarioComponent</text>
</g>
<!-- FeedbackUsuarioComponent&#45;&gt;ComponentsModule -->
<g id="edge3" class="edge">
<title>FeedbackUsuarioComponent&#45;&gt;ComponentsModule</title>
<path fill="none" stroke="#000000" d="M896.375,-122.2396C896.375,-137.5706 896.375,-157 896.375,-157 896.375,-157 769.4259,-157 769.4259,-157"/>
<polygon fill="#000000" stroke="#000000" points="769.4259,-153.5001 759.4259,-157 769.4259,-160.5001 769.4259,-153.5001"/>
</g>
<!-- FooterComponent -->
<g id="node4" class="node">
<title>FooterComponent</title>
<polygon fill="#ffffb3" stroke="#000000" points="819.8809,-122 702.1191,-122 702.1191,-86 819.8809,-86 819.8809,-122"/>
<text text-anchor="middle" x="761" y="-99.8" font-family="Times,serif" font-size="14.00" fill="#000000">FooterComponent</text>
</g>
<!-- FooterComponent&#45;&gt;ComponentsModule -->
<g id="edge4" class="edge">
<title>FooterComponent&#45;&gt;ComponentsModule</title>
<path fill="none" stroke="#000000" d="M730.6115,-122.1061C730.6115,-122.1061 730.6115,-140.991 730.6115,-140.991"/>
<polygon fill="#000000" stroke="#000000" points="727.1116,-140.9909 730.6115,-150.991 734.1116,-140.991 727.1116,-140.9909"/>
</g>
<!-- HomeComponent -->
<g id="node5" class="node">
<title>HomeComponent</title>
<polygon fill="#ffffb3" stroke="#000000" points="683.5451,-122 568.4549,-122 568.4549,-86 683.5451,-86 683.5451,-122"/>
<text text-anchor="middle" x="626" y="-99.8" font-family="Times,serif" font-size="14.00" fill="#000000">HomeComponent</text>
</g>
<!-- HomeComponent&#45;&gt;ComponentsModule -->
<g id="edge5" class="edge">
<title>HomeComponent&#45;&gt;ComponentsModule</title>
<path fill="none" stroke="#000000" d="M656.3044,-122.1061C656.3044,-122.1061 656.3044,-140.991 656.3044,-140.991"/>
<polygon fill="#000000" stroke="#000000" points="652.8044,-140.9909 656.3044,-150.991 659.8044,-140.991 652.8044,-140.9909"/>
</g>
<!-- ListComicsComponent -->
<g id="node6" class="node">
<title>ListComicsComponent</title>
<polygon fill="#ffffb3" stroke="#000000" points="549.8878,-122 404.1122,-122 404.1122,-86 549.8878,-86 549.8878,-122"/>
<text text-anchor="middle" x="477" y="-99.8" font-family="Times,serif" font-size="14.00" fill="#000000">ListComicsComponent</text>
</g>
<!-- ListComicsComponent&#45;&gt;ComponentsModule -->
<g id="edge6" class="edge">
<title>ListComicsComponent&#45;&gt;ComponentsModule</title>
<path fill="none" stroke="#000000" d="M508.625,-122.2396C508.625,-137.5706 508.625,-157 508.625,-157 508.625,-157 618.6437,-157 618.6437,-157"/>
<polygon fill="#000000" stroke="#000000" points="618.6437,-160.5001 628.6437,-157 618.6437,-153.5001 618.6437,-160.5001"/>
</g>
<!-- QuantidadeComicsComponent -->
<g id="node7" class="node">
<title>QuantidadeComicsComponent</title>
<polygon fill="#ffffb3" stroke="#000000" points="386.1413,-122 197.8587,-122 197.8587,-86 386.1413,-86 386.1413,-122"/>
<text text-anchor="middle" x="292" y="-99.8" font-family="Times,serif" font-size="14.00" fill="#000000">QuantidadeComicsComponent</text>
</g>
<!-- QuantidadeComicsComponent&#45;&gt;ComponentsModule -->
<g id="edge7" class="edge">
<title>QuantidadeComicsComponent&#45;&gt;ComponentsModule</title>
<path fill="none" stroke="#000000" d="M321.625,-122.0336C321.625,-139.0597 321.625,-162 321.625,-162 321.625,-162 618.7111,-162 618.7111,-162"/>
<polygon fill="#000000" stroke="#000000" points="618.7111,-165.5001 628.7111,-162 618.7111,-158.5001 618.7111,-165.5001"/>
</g>
<!-- ShowComicsComponent -->
<g id="node8" class="node">
<title>ShowComicsComponent</title>
<polygon fill="#ffffb3" stroke="#000000" points="179.9986,-122 24.0014,-122 24.0014,-86 179.9986,-86 179.9986,-122"/>
<text text-anchor="middle" x="102" y="-99.8" font-family="Times,serif" font-size="14.00" fill="#000000">ShowComicsComponent</text>
</g>
<!-- ShowComicsComponent&#45;&gt;ComponentsModule -->
<g id="edge8" class="edge">
<title>ShowComicsComponent&#45;&gt;ComponentsModule</title>
<path fill="none" stroke="#000000" d="M129.625,-122.2222C129.625,-140.8285 129.625,-167 129.625,-167 129.625,-167 618.7077,-167 618.7077,-167"/>
<polygon fill="#000000" stroke="#000000" points="618.7077,-170.5001 628.7077,-167 618.7076,-163.5001 618.7077,-170.5001"/>
</g>
<!-- BarHomeComponent  -->
<g id="node10" class="node">
<title>BarHomeComponent </title>
<polygon fill="#fb8072" stroke="#000000" points="1279.7562,-252 1140.2438,-252 1140.2438,-216 1279.7562,-216 1279.7562,-252"/>
<text text-anchor="middle" x="1210" y="-229.8" font-family="Times,serif" font-size="14.00" fill="#000000">BarHomeComponent </text>
</g>
<!-- ComponentsModule&#45;&gt;BarHomeComponent  -->
<g id="edge9" class="edge">
<title>ComponentsModule&#45;&gt;BarHomeComponent </title>
<path fill="none" stroke="#000000" stroke-dasharray="5,2" d="M759.4747,-172C888.0953,-172 1161.3473,-172 1161.3473,-172 1161.3473,-172 1161.3473,-205.7333 1161.3473,-205.7333"/>
<polygon fill="#000000" stroke="#000000" points="1157.8474,-205.7333 1161.3473,-215.7333 1164.8474,-205.7333 1157.8474,-205.7333"/>
</g>
<!-- DescriptionComponent  -->
<g id="node11" class="node">
<title>DescriptionComponent </title>
<polygon fill="#fb8072" stroke="#000000" points="1122.1453,-252 971.8547,-252 971.8547,-216 1122.1453,-216 1122.1453,-252"/>
<text text-anchor="middle" x="1047" y="-229.8" font-family="Times,serif" font-size="14.00" fill="#000000">DescriptionComponent </text>
</g>
<!-- ComponentsModule&#45;&gt;DescriptionComponent  -->
<g id="edge10" class="edge">
<title>ComponentsModule&#45;&gt;DescriptionComponent </title>
<path fill="none" stroke="#000000" stroke-dasharray="5,2" d="M759.2661,-177C847.7298,-177 994.7863,-177 994.7863,-177 994.7863,-177 994.7863,-205.9648 994.7863,-205.9648"/>
<polygon fill="#000000" stroke="#000000" points="991.2864,-205.9648 994.7863,-215.9648 998.2864,-205.9649 991.2864,-205.9648"/>
</g>
<!-- FeedbackUsuarioComponent  -->
<g id="node12" class="node">
<title>FeedbackUsuarioComponent </title>
<polygon fill="#fb8072" stroke="#000000" points="954.2905,-252 771.7095,-252 771.7095,-216 954.2905,-216 954.2905,-252"/>
<text text-anchor="middle" x="863" y="-229.8" font-family="Times,serif" font-size="14.00" fill="#000000">FeedbackUsuarioComponent </text>
</g>
<!-- ComponentsModule&#45;&gt;FeedbackUsuarioComponent  -->
<g id="edge11" class="edge">
<title>ComponentsModule&#45;&gt;FeedbackUsuarioComponent </title>
<path fill="none" stroke="#000000" stroke-dasharray="5,2" d="M759.3178,-182C779.1373,-182 795.7726,-182 795.7726,-182 795.7726,-182 795.7726,-205.8129 795.7726,-205.8129"/>
<polygon fill="#000000" stroke="#000000" points="792.2727,-205.8129 795.7726,-215.8129 799.2727,-205.813 792.2727,-205.8129"/>
</g>
<!-- HomeComponent  -->
<g id="node13" class="node">
<title>HomeComponent </title>
<polygon fill="#fb8072" stroke="#000000" points="753.5442,-252 634.4558,-252 634.4558,-216 753.5442,-216 753.5442,-252"/>
<text text-anchor="middle" x="694" y="-229.8" font-family="Times,serif" font-size="14.00" fill="#000000">HomeComponent </text>
</g>
<!-- ComponentsModule&#45;&gt;HomeComponent  -->
<g id="edge12" class="edge">
<title>ComponentsModule&#45;&gt;HomeComponent </title>
<path fill="none" stroke="#000000" stroke-dasharray="5,2" d="M694,-187.1061C694,-187.1061 694,-205.991 694,-205.991"/>
<polygon fill="#000000" stroke="#000000" points="690.5001,-205.9909 694,-215.991 697.5001,-205.991 690.5001,-205.9909"/>
</g>
<!-- ListComicsComponent  -->
<g id="node14" class="node">
<title>ListComicsComponent </title>
<polygon fill="#fb8072" stroke="#000000" points="616.8883,-252 467.1117,-252 467.1117,-216 616.8883,-216 616.8883,-252"/>
<text text-anchor="middle" x="542" y="-229.8" font-family="Times,serif" font-size="14.00" fill="#000000">ListComicsComponent </text>
</g>
<!-- ComponentsModule&#45;&gt;ListComicsComponent  -->
<g id="edge13" class="edge">
<title>ComponentsModule&#45;&gt;ListComicsComponent </title>
<path fill="none" stroke="#000000" stroke-dasharray="5,2" d="M628.832,-182C609.0581,-182 592.4609,-182 592.4609,-182 592.4609,-182 592.4609,-205.8129 592.4609,-205.8129"/>
<polygon fill="#000000" stroke="#000000" points="588.961,-205.8129 592.4609,-215.8129 595.961,-205.813 588.961,-205.8129"/>
</g>
<!-- QuantidadeComicsComponent  -->
<g id="node15" class="node">
<title>QuantidadeComicsComponent </title>
<polygon fill="#fb8072" stroke="#000000" points="449.1411,-252 256.8589,-252 256.8589,-216 449.1411,-216 449.1411,-252"/>
<text text-anchor="middle" x="353" y="-229.8" font-family="Times,serif" font-size="14.00" fill="#000000">QuantidadeComicsComponent </text>
</g>
<!-- ComponentsModule&#45;&gt;QuantidadeComicsComponent  -->
<g id="edge14" class="edge">
<title>ComponentsModule&#45;&gt;QuantidadeComicsComponent </title>
<path fill="none" stroke="#000000" stroke-dasharray="5,2" d="M628.5776,-177C549.4034,-177 426.5633,-177 426.5633,-177 426.5633,-177 426.5633,-205.9648 426.5633,-205.9648"/>
<polygon fill="#000000" stroke="#000000" points="423.0634,-205.9648 426.5633,-215.9648 430.0634,-205.9649 423.0634,-205.9648"/>
</g>
<!-- ShowComicsComponent  -->
<g id="node16" class="node">
<title>ShowComicsComponent </title>
<polygon fill="#fb8072" stroke="#000000" points="238.9994,-252 79.0006,-252 79.0006,-216 238.9994,-216 238.9994,-252"/>
<text text-anchor="middle" x="159" y="-229.8" font-family="Times,serif" font-size="14.00" fill="#000000">ShowComicsComponent </text>
</g>
<!-- ComponentsModule&#45;&gt;ShowComicsComponent  -->
<g id="edge15" class="edge">
<title>ComponentsModule&#45;&gt;ShowComicsComponent </title>
<path fill="none" stroke="#000000" stroke-dasharray="5,2" d="M628.3436,-172C497.8231,-172 218.2144,-172 218.2144,-172 218.2144,-172 218.2144,-205.7333 218.2144,-205.7333"/>
<polygon fill="#000000" stroke="#000000" points="214.7145,-205.7333 218.2144,-215.7333 221.7145,-205.7333 214.7145,-205.7333"/>
</g>
</g>
</svg>
