<?xml version="1.0" encoding="UTF-8" standalone="no"?>
<!DOCTYPE svg PUBLIC "-//W3C//DTD SVG 1.1//EN"
 "http://www.w3.org/Graphics/SVG/1.1/DTD/svg11.dtd">
<!-- Generated by graphviz version 2.40.1 (20161225.0304)
 -->
<!-- Title: dependencies Pages: 1 -->
<svg width="1806pt" height="284pt"
 viewBox="0.00 0.00 1806.00 284.00" xmlns="http://www.w3.org/2000/svg" xmlns:xlink="http://www.w3.org/1999/xlink">
<g id="graph0" class="graph" transform="scale(1 1) rotate(0) translate(4 280)">
<title>dependencies</title>
<polygon fill="#ffffff" stroke="transparent" points="-4,4 -4,-280 1802,-280 1802,4 -4,4"/>
<text text-anchor="start" x="878.0091" y="-42.4" font-family="sans-serif" font-weight="bold" font-size="14.00" fill="#000000">Legend</text>
<polygon fill="#ffffb3" stroke="transparent" points="665,-10 665,-30 685,-30 685,-10 665,-10"/>
<text text-anchor="start" x="688.629" y="-15.4" font-family="sans-serif" font-size="14.00" fill="#000000"> &#160;Declarations</text>
<polygon fill="#8dd3c7" stroke="transparent" points="778,-10 778,-30 798,-30 798,-10 778,-10"/>
<text text-anchor="start" x="801.7251" y="-15.4" font-family="sans-serif" font-size="14.00" fill="#000000"> &#160;Module</text>
<polygon fill="#80b1d3" stroke="transparent" points="864,-10 864,-30 884,-30 884,-10 864,-10"/>
<text text-anchor="start" x="887.7812" y="-15.4" font-family="sans-serif" font-size="14.00" fill="#000000"> &#160;Bootstrap</text>
<polygon fill="#fdb462" stroke="transparent" points="961,-10 961,-30 981,-30 981,-10 961,-10"/>
<text text-anchor="start" x="984.6732" y="-15.4" font-family="sans-serif" font-size="14.00" fill="#000000"> &#160;Providers</text>
<polygon fill="#fb8072" stroke="transparent" points="1057,-10 1057,-30 1077,-30 1077,-10 1057,-10"/>
<text text-anchor="start" x="1080.7258" y="-15.4" font-family="sans-serif" font-size="14.00" fill="#000000"> &#160;Exports</text>
<g id="clust1" class="cluster">
<title>cluster_AppModule</title>
<polygon fill="none" stroke="#000000" stroke-dasharray="1,5" points="8,-70 8,-268 438,-268 438,-70 8,-70"/>
</g>
<g id="clust2" class="cluster">
<title>cluster_AppModule_declarations</title>
<polygon fill="none" stroke="#000000" points="308,-78 308,-130 430,-130 430,-78 308,-78"/>
</g>
<g id="clust4" class="cluster">
<title>cluster_AppModule_imports</title>
<polygon fill="none" stroke="#000000" points="156,-78 156,-130 300,-130 300,-78 156,-78"/>
</g>
<g id="clust6" class="cluster">
<title>cluster_AppModule_bootstrap</title>
<polygon fill="none" stroke="#000000" points="166,-208 166,-260 290,-260 290,-208 166,-208"/>
</g>
<g id="clust7" class="cluster">
<title>cluster_AppModule_providers</title>
<polygon fill="none" stroke="#000000" points="16,-78 16,-130 148,-130 148,-78 16,-78"/>
</g>
<g id="clust14" class="cluster">
<title>cluster_ComponentsModule</title>
<polygon fill="none" stroke="#000000" stroke-dasharray="1,5" points="446,-70 446,-268 1790,-268 1790,-70 446,-70"/>
</g>
<g id="clust15" class="cluster">
<title>cluster_ComponentsModule_declarations</title>
<polygon fill="none" stroke="#000000" points="454,-78 454,-130 1782,-130 1782,-78 454,-78"/>
</g>
<g id="clust25" class="cluster">
<title>cluster_ComponentsModule_exports</title>
<polygon fill="none" stroke="#000000" points="509,-208 509,-260 1726,-260 1726,-208 509,-208"/>
</g>
<!-- AppComponent -->
<g id="node1" class="node">
<title>AppComponent</title>
<polygon fill="#ffffb3" stroke="#000000" points="421.9399,-122 316.0601,-122 316.0601,-86 421.9399,-86 421.9399,-122"/>
<text text-anchor="middle" x="369" y="-99.8" font-family="Times,serif" font-size="14.00" fill="#000000">AppComponent</text>
</g>
<!-- AppModule -->
<g id="node2" class="node">
<title>AppModule</title>
<polygon fill="#8dd3c7" stroke="#000000" points="269.6571,-187 266.6571,-191 245.6571,-191 242.6571,-187 186.3429,-187 186.3429,-151 269.6571,-151 269.6571,-187"/>
<text text-anchor="middle" x="228" y="-164.8" font-family="Times,serif" font-size="14.00" fill="#000000">AppModule</text>
</g>
<!-- AppComponent&#45;&gt;AppModule -->
<g id="edge1" class="edge">
<title>AppComponent&#45;&gt;AppModule</title>
<path fill="none" stroke="#000000" d="M369,-122.3228C369,-145.6602 369,-183 369,-183 369,-183 279.9229,-183 279.9229,-183"/>
<polygon fill="#000000" stroke="#000000" points="279.9229,-179.5001 269.9229,-183 279.9229,-186.5001 279.9229,-179.5001"/>
</g>
<!-- AppComponent  -->
<g id="node4" class="node">
<title>AppComponent </title>
<polygon fill="#80b1d3" stroke="#000000" points="282.439,-252 173.561,-252 173.561,-216 282.439,-216 282.439,-252"/>
<text text-anchor="middle" x="228" y="-229.8" font-family="Times,serif" font-size="14.00" fill="#000000">AppComponent </text>
</g>
<!-- AppModule&#45;&gt;AppComponent  -->
<g id="edge3" class="edge">
<title>AppModule&#45;&gt;AppComponent </title>
<path fill="none" stroke="#000000" stroke-dasharray="1,5" d="M228,-187.1061C228,-187.1061 228,-205.991 228,-205.991"/>
<polygon fill="#000000" stroke="#000000" points="224.5001,-205.9909 228,-215.991 231.5001,-205.991 224.5001,-205.9909"/>
</g>
<!-- AppRoutingModule -->
<g id="node3" class="node">
<title>AppRoutingModule</title>
<polygon fill="#8dd3c7" stroke="#000000" points="292.2744,-122 289.2744,-126 268.2744,-126 265.2744,-122 163.7256,-122 163.7256,-86 292.2744,-86 292.2744,-122"/>
<text text-anchor="middle" x="228" y="-99.8" font-family="Times,serif" font-size="14.00" fill="#000000">AppRoutingModule</text>
</g>
<!-- AppRoutingModule&#45;&gt;AppModule -->
<g id="edge2" class="edge">
<title>AppRoutingModule&#45;&gt;AppModule</title>
<path fill="none" stroke="#000000" d="M228,-122.1061C228,-122.1061 228,-140.991 228,-140.991"/>
<polygon fill="#000000" stroke="#000000" points="224.5001,-140.9909 228,-150.991 231.5001,-140.991 224.5001,-140.9909"/>
</g>
<!-- DataService -->
<g id="node5" class="node">
<title>DataService</title>
<ellipse fill="#fdb462" stroke="#000000" cx="82" cy="-104" rx="58.4415" ry="18"/>
<text text-anchor="middle" x="82" y="-99.8" font-family="Times,serif" font-size="14.00" fill="#000000">DataService</text>
</g>
<!-- DataService&#45;&gt;AppModule -->
<g id="edge4" class="edge">
<title>DataService&#45;&gt;AppModule</title>
<path fill="none" stroke="#000000" d="M82,-122.1061C82,-141.3391 82,-169 82,-169 82,-169 176.1623,-169 176.1623,-169"/>
<polygon fill="#000000" stroke="#000000" points="176.1623,-172.5001 186.1623,-169 176.1622,-165.5001 176.1623,-172.5001"/>
</g>
<!-- BarHomeComponent -->
<g id="node6" class="node">
<title>BarHomeComponent</title>
<polygon fill="#ffffb3" stroke="#000000" points="1773.7562,-122 1638.2438,-122 1638.2438,-86 1773.7562,-86 1773.7562,-122"/>
<text text-anchor="middle" x="1706" y="-99.8" font-family="Times,serif" font-size="14.00" fill="#000000">BarHomeComponent</text>
</g>
<!-- ComponentsModule -->
<g id="node14" class="node">
<title>ComponentsModule</title>
<polygon fill="#8dd3c7" stroke="#000000" points="1197.3272,-187 1194.3272,-191 1173.3272,-191 1170.3272,-187 1066.6728,-187 1066.6728,-151 1197.3272,-151 1197.3272,-187"/>
<text text-anchor="middle" x="1132" y="-164.8" font-family="Times,serif" font-size="14.00" fill="#000000">ComponentsModule</text>
</g>
<!-- BarHomeComponent&#45;&gt;ComponentsModule -->
<g id="edge5" class="edge">
<title>BarHomeComponent&#45;&gt;ComponentsModule</title>
<path fill="none" stroke="#000000" d="M1677.875,-122.2222C1677.875,-140.8285 1677.875,-167 1677.875,-167 1677.875,-167 1207.3031,-167 1207.3031,-167"/>
<polygon fill="#000000" stroke="#000000" points="1207.3031,-163.5001 1197.3031,-167 1207.303,-170.5001 1207.3031,-163.5001"/>
</g>
<!-- DescriptionComponent -->
<g id="node7" class="node">
<title>DescriptionComponent</title>
<polygon fill="#ffffb3" stroke="#000000" points="1620.1456,-122 1473.8544,-122 1473.8544,-86 1620.1456,-86 1620.1456,-122"/>
<text text-anchor="middle" x="1547" y="-99.8" font-family="Times,serif" font-size="14.00" fill="#000000">DescriptionComponent</text>
</g>
<!-- DescriptionComponent&#45;&gt;ComponentsModule -->
<g id="edge6" class="edge">
<title>DescriptionComponent&#45;&gt;ComponentsModule</title>
<path fill="none" stroke="#000000" d="M1516.875,-122.0336C1516.875,-139.0597 1516.875,-162 1516.875,-162 1516.875,-162 1207.2888,-162 1207.2888,-162"/>
<polygon fill="#000000" stroke="#000000" points="1207.2888,-158.5001 1197.2888,-162 1207.2888,-165.5001 1207.2888,-158.5001"/>
</g>
<!-- FeedbackUsuarioComponent -->
<g id="node8" class="node">
<title>FeedbackUsuarioComponent</title>
<polygon fill="#ffffb3" stroke="#000000" points="1455.7906,-122 1276.2094,-122 1276.2094,-86 1455.7906,-86 1455.7906,-122"/>
<text text-anchor="middle" x="1366" y="-99.8" font-family="Times,serif" font-size="14.00" fill="#000000">FeedbackUsuarioComponent</text>
</g>
<!-- FeedbackUsuarioComponent&#45;&gt;ComponentsModule -->
<g id="edge7" class="edge">
<title>FeedbackUsuarioComponent&#45;&gt;ComponentsModule</title>
<path fill="none" stroke="#000000" d="M1334.375,-122.2396C1334.375,-137.5706 1334.375,-157 1334.375,-157 1334.375,-157 1207.4259,-157 1207.4259,-157"/>
<polygon fill="#000000" stroke="#000000" points="1207.4259,-153.5001 1197.4259,-157 1207.4259,-160.5001 1207.4259,-153.5001"/>
</g>
<!-- FooterComponent -->
<g id="node9" class="node">
<title>FooterComponent</title>
<polygon fill="#ffffb3" stroke="#000000" points="1257.8809,-122 1140.1191,-122 1140.1191,-86 1257.8809,-86 1257.8809,-122"/>
<text text-anchor="middle" x="1199" y="-99.8" font-family="Times,serif" font-size="14.00" fill="#000000">FooterComponent</text>
</g>
<!-- FooterComponent&#45;&gt;ComponentsModule -->
<g id="edge8" class="edge">
<title>FooterComponent&#45;&gt;ComponentsModule</title>
<path fill="none" stroke="#000000" d="M1168.6115,-122.1061C1168.6115,-122.1061 1168.6115,-140.991 1168.6115,-140.991"/>
<polygon fill="#000000" stroke="#000000" points="1165.1116,-140.9909 1168.6115,-150.991 1172.1116,-140.991 1165.1116,-140.9909"/>
</g>
<!-- HomeComponent -->
<g id="node10" class="node">
<title>HomeComponent</title>
<polygon fill="#ffffb3" stroke="#000000" points="1121.5451,-122 1006.4549,-122 1006.4549,-86 1121.5451,-86 1121.5451,-122"/>
<text text-anchor="middle" x="1064" y="-99.8" font-family="Times,serif" font-size="14.00" fill="#000000">HomeComponent</text>
</g>
<!-- HomeComponent&#45;&gt;ComponentsModule -->
<g id="edge9" class="edge">
<title>HomeComponent&#45;&gt;ComponentsModule</title>
<path fill="none" stroke="#000000" d="M1094.3043,-122.1061C1094.3043,-122.1061 1094.3043,-140.991 1094.3043,-140.991"/>
<polygon fill="#000000" stroke="#000000" points="1090.8044,-140.9909 1094.3043,-150.991 1097.8044,-140.991 1090.8044,-140.9909"/>
</g>
<!-- ListComicsComponent -->
<g id="node11" class="node">
<title>ListComicsComponent</title>
<polygon fill="#ffffb3" stroke="#000000" points="987.8878,-122 842.1122,-122 842.1122,-86 987.8878,-86 987.8878,-122"/>
<text text-anchor="middle" x="915" y="-99.8" font-family="Times,serif" font-size="14.00" fill="#000000">ListComicsComponent</text>
</g>
<!-- ListComicsComponent&#45;&gt;ComponentsModule -->
<g id="edge10" class="edge">
<title>ListComicsComponent&#45;&gt;ComponentsModule</title>
<path fill="none" stroke="#000000" d="M946.625,-122.1871C946.625,-137.1824 946.625,-156 946.625,-156 946.625,-156 1056.6437,-156 1056.6437,-156"/>
<polygon fill="#000000" stroke="#000000" points="1056.6437,-159.5001 1066.6437,-156 1056.6437,-152.5001 1056.6437,-159.5001"/>
</g>
<!-- QuantidadeComicsComponent -->
<g id="node12" class="node">
<title>QuantidadeComicsComponent</title>
<polygon fill="#ffffb3" stroke="#000000" points="824.1413,-122 635.8587,-122 635.8587,-86 824.1413,-86 824.1413,-122"/>
<text text-anchor="middle" x="730" y="-99.8" font-family="Times,serif" font-size="14.00" fill="#000000">QuantidadeComicsComponent</text>
</g>
<!-- QuantidadeComicsComponent&#45;&gt;ComponentsModule -->
<g id="edge11" class="edge">
<title>QuantidadeComicsComponent&#45;&gt;ComponentsModule</title>
<path fill="none" stroke="#000000" d="M759.625,-122.027C759.625,-138.3976 759.625,-160 759.625,-160 759.625,-160 1056.7111,-160 1056.7111,-160"/>
<polygon fill="#000000" stroke="#000000" points="1056.7111,-163.5001 1066.7111,-160 1056.7111,-156.5001 1056.7111,-163.5001"/>
</g>
<!-- ShowComicsComponent -->
<g id="node13" class="node">
<title>ShowComicsComponent</title>
<polygon fill="#ffffb3" stroke="#000000" points="617.9986,-122 462.0014,-122 462.0014,-86 617.9986,-86 617.9986,-122"/>
<text text-anchor="middle" x="540" y="-99.8" font-family="Times,serif" font-size="14.00" fill="#000000">ShowComicsComponent</text>
</g>
<!-- ShowComicsComponent&#45;&gt;ComponentsModule -->
<g id="edge12" class="edge">
<title>ShowComicsComponent&#45;&gt;ComponentsModule</title>
<path fill="none" stroke="#000000" d="M567.625,-122.302C567.625,-140.2699 567.625,-165 567.625,-165 567.625,-165 1056.7077,-165 1056.7077,-165"/>
<polygon fill="#000000" stroke="#000000" points="1056.7077,-168.5001 1066.7077,-165 1056.7076,-161.5001 1056.7077,-168.5001"/>
</g>
<!-- BarHomeComponent  -->
<g id="node15" class="node">
<title>BarHomeComponent </title>
<polygon fill="#fb8072" stroke="#000000" points="1717.7562,-252 1578.2438,-252 1578.2438,-216 1717.7562,-216 1717.7562,-252"/>
<text text-anchor="middle" x="1648" y="-229.8" font-family="Times,serif" font-size="14.00" fill="#000000">BarHomeComponent </text>
</g>
<!-- ComponentsModule&#45;&gt;BarHomeComponent  -->
<g id="edge13" class="edge">
<title>ComponentsModule&#45;&gt;BarHomeComponent </title>
<path fill="none" stroke="#000000" stroke-dasharray="5,2" d="M1197.4747,-172C1326.0953,-172 1599.3473,-172 1599.3473,-172 1599.3473,-172 1599.3473,-205.7333 1599.3473,-205.7333"/>
<polygon fill="#000000" stroke="#000000" points="1595.8474,-205.7333 1599.3473,-215.7333 1602.8474,-205.7333 1595.8474,-205.7333"/>
</g>
<!-- DescriptionComponent  -->
<g id="node16" class="node">
<title>DescriptionComponent </title>
<polygon fill="#fb8072" stroke="#000000" points="1560.1453,-252 1409.8547,-252 1409.8547,-216 1560.1453,-216 1560.1453,-252"/>
<text text-anchor="middle" x="1485" y="-229.8" font-family="Times,serif" font-size="14.00" fill="#000000">DescriptionComponent </text>
</g>
<!-- ComponentsModule&#45;&gt;DescriptionComponent  -->
<g id="edge14" class="edge">
<title>ComponentsModule&#45;&gt;DescriptionComponent </title>
<path fill="none" stroke="#000000" stroke-dasharray="5,2" d="M1197.2661,-177C1285.7298,-177 1432.7863,-177 1432.7863,-177 1432.7863,-177 1432.7863,-205.9648 1432.7863,-205.9648"/>
<polygon fill="#000000" stroke="#000000" points="1429.2864,-205.9648 1432.7863,-215.9648 1436.2864,-205.9649 1429.2864,-205.9648"/>
</g>
<!-- FeedbackUsuarioComponent  -->
<g id="node17" class="node">
<title>FeedbackUsuarioComponent </title>
<polygon fill="#fb8072" stroke="#000000" points="1392.2905,-252 1209.7095,-252 1209.7095,-216 1392.2905,-216 1392.2905,-252"/>
<text text-anchor="middle" x="1301" y="-229.8" font-family="Times,serif" font-size="14.00" fill="#000000">FeedbackUsuarioComponent </text>
</g>
<!-- ComponentsModule&#45;&gt;FeedbackUsuarioComponent  -->
<g id="edge15" class="edge">
<title>ComponentsModule&#45;&gt;FeedbackUsuarioComponent </title>
<path fill="none" stroke="#000000" stroke-dasharray="5,2" d="M1197.3178,-182C1217.1373,-182 1233.7726,-182 1233.7726,-182 1233.7726,-182 1233.7726,-205.8129 1233.7726,-205.8129"/>
<polygon fill="#000000" stroke="#000000" points="1230.2727,-205.8129 1233.7726,-215.8129 1237.2727,-205.813 1230.2727,-205.8129"/>
</g>
<!-- HomeComponent  -->
<g id="node18" class="node">
<title>HomeComponent </title>
<polygon fill="#fb8072" stroke="#000000" points="1191.5442,-252 1072.4558,-252 1072.4558,-216 1191.5442,-216 1191.5442,-252"/>
<text text-anchor="middle" x="1132" y="-229.8" font-family="Times,serif" font-size="14.00" fill="#000000">HomeComponent </text>
</g>
<!-- ComponentsModule&#45;&gt;HomeComponent  -->
<g id="edge16" class="edge">
<title>ComponentsModule&#45;&gt;HomeComponent </title>
<path fill="none" stroke="#000000" stroke-dasharray="5,2" d="M1132,-187.1061C1132,-187.1061 1132,-205.991 1132,-205.991"/>
<polygon fill="#000000" stroke="#000000" points="1128.5001,-205.9909 1132,-215.991 1135.5001,-205.991 1128.5001,-205.9909"/>
</g>
<!-- ListComicsComponent  -->
<g id="node19" class="node">
<title>ListComicsComponent </title>
<polygon fill="#fb8072" stroke="#000000" points="1054.8883,-252 905.1117,-252 905.1117,-216 1054.8883,-216 1054.8883,-252"/>
<text text-anchor="middle" x="980" y="-229.8" font-family="Times,serif" font-size="14.00" fill="#000000">ListComicsComponent </text>
</g>
<!-- ComponentsModule&#45;&gt;ListComicsComponent  -->
<g id="edge17" class="edge">
<title>ComponentsModule&#45;&gt;ListComicsComponent </title>
<path fill="none" stroke="#000000" stroke-dasharray="5,2" d="M1066.832,-178C1047.0581,-178 1030.4609,-178 1030.4609,-178 1030.4609,-178 1030.4609,-205.973 1030.4609,-205.973"/>
<polygon fill="#000000" stroke="#000000" points="1026.961,-205.973 1030.4609,-215.973 1033.961,-205.973 1026.961,-205.973"/>
</g>
<!-- QuantidadeComicsComponent  -->
<g id="node20" class="node">
<title>QuantidadeComicsComponent </title>
<polygon fill="#fb8072" stroke="#000000" points="887.1411,-252 694.8589,-252 694.8589,-216 887.1411,-216 887.1411,-252"/>
<text text-anchor="middle" x="791" y="-229.8" font-family="Times,serif" font-size="14.00" fill="#000000">QuantidadeComicsComponent </text>
</g>
<!-- ComponentsModule&#45;&gt;QuantidadeComicsComponent  -->
<g id="edge18" class="edge">
<title>ComponentsModule&#45;&gt;QuantidadeComicsComponent </title>
<path fill="none" stroke="#000000" stroke-dasharray="5,2" d="M1066.5776,-174C987.4034,-174 864.5633,-174 864.5633,-174 864.5633,-174 864.5633,-205.998 864.5633,-205.998"/>
<polygon fill="#000000" stroke="#000000" points="861.0634,-205.998 864.5633,-215.998 868.0634,-205.9981 861.0634,-205.998"/>
</g>
<!-- ShowComicsComponent  -->
<g id="node21" class="node">
<title>ShowComicsComponent </title>
<polygon fill="#fb8072" stroke="#000000" points="676.9994,-252 517.0006,-252 517.0006,-216 676.9994,-216 676.9994,-252"/>
<text text-anchor="middle" x="597" y="-229.8" font-family="Times,serif" font-size="14.00" fill="#000000">ShowComicsComponent </text>
</g>
<!-- ComponentsModule&#45;&gt;ShowComicsComponent  -->
<g id="edge19" class="edge">
<title>ComponentsModule&#45;&gt;ShowComicsComponent </title>
<path fill="none" stroke="#000000" stroke-dasharray="5,2" d="M1066.3436,-169C935.8231,-169 656.2144,-169 656.2144,-169 656.2144,-169 656.2144,-205.8939 656.2144,-205.8939"/>
<polygon fill="#000000" stroke="#000000" points="652.7145,-205.8938 656.2144,-215.8939 659.7145,-205.8939 652.7145,-205.8938"/>
</g>
</g>
</svg>
