<?xml version="1.0" encoding="UTF-8" standalone="no"?>
<!DOCTYPE svg PUBLIC "-//W3C//DTD SVG 1.1//EN"
 "http://www.w3.org/Graphics/SVG/1.1/DTD/svg11.dtd">
<!-- Generated by graphviz version 2.40.1 (20161225.0304)
 -->
<!-- Title: dependencies Pages: 1 -->
<svg width="1695pt" height="284pt"
 viewBox="0.00 0.00 1695.00 284.00" xmlns="http://www.w3.org/2000/svg" xmlns:xlink="http://www.w3.org/1999/xlink">
<g id="graph0" class="graph" transform="scale(1 1) rotate(0) translate(4 280)">
<title>dependencies</title>
<polygon fill="#ffffff" stroke="transparent" points="-4,4 -4,-280 1691,-280 1691,4 -4,4"/>
<text text-anchor="start" x="822.5091" y="-42.4" font-family="sans-serif" font-weight="bold" font-size="14.00" fill="#000000">Legend</text>
<polygon fill="#ffffb3" stroke="transparent" points="609.5,-10 609.5,-30 629.5,-30 629.5,-10 609.5,-10"/>
<text text-anchor="start" x="633.129" y="-15.4" font-family="sans-serif" font-size="14.00" fill="#000000"> &#160;Declarations</text>
<polygon fill="#8dd3c7" stroke="transparent" points="722.5,-10 722.5,-30 742.5,-30 742.5,-10 722.5,-10"/>
<text text-anchor="start" x="746.2251" y="-15.4" font-family="sans-serif" font-size="14.00" fill="#000000"> &#160;Module</text>
<polygon fill="#80b1d3" stroke="transparent" points="808.5,-10 808.5,-30 828.5,-30 828.5,-10 808.5,-10"/>
<text text-anchor="start" x="832.2812" y="-15.4" font-family="sans-serif" font-size="14.00" fill="#000000"> &#160;Bootstrap</text>
<polygon fill="#fdb462" stroke="transparent" points="905.5,-10 905.5,-30 925.5,-30 925.5,-10 905.5,-10"/>
<text text-anchor="start" x="929.1732" y="-15.4" font-family="sans-serif" font-size="14.00" fill="#000000"> &#160;Providers</text>
<polygon fill="#fb8072" stroke="transparent" points="1001.5,-10 1001.5,-30 1021.5,-30 1021.5,-10 1001.5,-10"/>
<text text-anchor="start" x="1025.2258" y="-15.4" font-family="sans-serif" font-size="14.00" fill="#000000"> &#160;Exports</text>
<g id="clust1" class="cluster">
<title>cluster_AppModule</title>
<polygon fill="none" stroke="#000000" stroke-dasharray="1,5" points="8,-70 8,-268 438,-268 438,-70 8,-70"/>
</g>
<g id="clust2" class="cluster">
<title>cluster_AppModule_declarations</title>
<polygon fill="none" stroke="#000000" points="308,-78 308,-130 430,-130 430,-78 308,-78"/>
</g>
<g id="clust4" class="cluster">
<title>cluster_AppModule_imports</title>
<polygon fill="none" stroke="#000000" points="156,-78 156,-130 300,-130 300,-78 156,-78"/>
</g>
<g id="clust6" class="cluster">
<title>cluster_AppModule_bootstrap</title>
<polygon fill="none" stroke="#000000" points="166,-208 166,-260 290,-260 290,-208 166,-208"/>
</g>
<g id="clust7" class="cluster">
<title>cluster_AppModule_providers</title>
<polygon fill="none" stroke="#000000" points="16,-78 16,-130 148,-130 148,-78 16,-78"/>
</g>
<g id="clust14" class="cluster">
<title>cluster_ComponentsModule</title>
<polygon fill="none" stroke="#000000" stroke-dasharray="1,5" points="446,-70 446,-268 1679,-268 1679,-70 446,-70"/>
</g>
<g id="clust15" class="cluster">
<title>cluster_ComponentsModule_declarations</title>
<polygon fill="none" stroke="#000000" points="467,-78 467,-130 1658,-130 1658,-78 467,-78"/>
</g>
<g id="clust24" class="cluster">
<title>cluster_ComponentsModule_exports</title>
<polygon fill="none" stroke="#000000" points="454,-208 454,-260 1671,-260 1671,-208 454,-208"/>
</g>
<!-- AppComponent -->
<g id="node1" class="node">
<title>AppComponent</title>
<polygon fill="#ffffb3" stroke="#000000" points="421.9399,-122 316.0601,-122 316.0601,-86 421.9399,-86 421.9399,-122"/>
<text text-anchor="middle" x="369" y="-99.8" font-family="Times,serif" font-size="14.00" fill="#000000">AppComponent</text>
</g>
<!-- AppModule -->
<g id="node2" class="node">
<title>AppModule</title>
<polygon fill="#8dd3c7" stroke="#000000" points="269.6571,-187 266.6571,-191 245.6571,-191 242.6571,-187 186.3429,-187 186.3429,-151 269.6571,-151 269.6571,-187"/>
<text text-anchor="middle" x="228" y="-164.8" font-family="Times,serif" font-size="14.00" fill="#000000">AppModule</text>
</g>
<!-- AppComponent&#45;&gt;AppModule -->
<g id="edge1" class="edge">
<title>AppComponent&#45;&gt;AppModule</title>
<path fill="none" stroke="#000000" d="M369,-122.0908C369,-145.1328 369,-182 369,-182 369,-182 279.9229,-182 279.9229,-182"/>
<polygon fill="#000000" stroke="#000000" points="279.9229,-178.5001 269.9229,-182 279.9229,-185.5001 279.9229,-178.5001"/>
</g>
<!-- AppComponent  -->
<g id="node4" class="node">
<title>AppComponent </title>
<polygon fill="#80b1d3" stroke="#000000" points="282.439,-252 173.561,-252 173.561,-216 282.439,-216 282.439,-252"/>
<text text-anchor="middle" x="228" y="-229.8" font-family="Times,serif" font-size="14.00" fill="#000000">AppComponent </text>
</g>
<!-- AppModule&#45;&gt;AppComponent  -->
<g id="edge3" class="edge">
<title>AppModule&#45;&gt;AppComponent </title>
<path fill="none" stroke="#000000" stroke-dasharray="1,5" d="M228,-187.1061C228,-187.1061 228,-205.991 228,-205.991"/>
<polygon fill="#000000" stroke="#000000" points="224.5001,-205.9909 228,-215.991 231.5001,-205.991 224.5001,-205.9909"/>
</g>
<!-- AppRoutingModule -->
<g id="node3" class="node">
<title>AppRoutingModule</title>
<polygon fill="#8dd3c7" stroke="#000000" points="292.2744,-122 289.2744,-126 268.2744,-126 265.2744,-122 163.7256,-122 163.7256,-86 292.2744,-86 292.2744,-122"/>
<text text-anchor="middle" x="228" y="-99.8" font-family="Times,serif" font-size="14.00" fill="#000000">AppRoutingModule</text>
</g>
<!-- AppRoutingModule&#45;&gt;AppModule -->
<g id="edge2" class="edge">
<title>AppRoutingModule&#45;&gt;AppModule</title>
<path fill="none" stroke="#000000" d="M228,-122.1061C228,-122.1061 228,-140.991 228,-140.991"/>
<polygon fill="#000000" stroke="#000000" points="224.5001,-140.9909 228,-150.991 231.5001,-140.991 224.5001,-140.9909"/>
</g>
<!-- DataService -->
<g id="node5" class="node">
<title>DataService</title>
<ellipse fill="#fdb462" stroke="#000000" cx="82" cy="-104" rx="58.4415" ry="18"/>
<text text-anchor="middle" x="82" y="-99.8" font-family="Times,serif" font-size="14.00" fill="#000000">DataService</text>
</g>
<!-- DataService&#45;&gt;AppModule -->
<g id="edge4" class="edge">
<title>DataService&#45;&gt;AppModule</title>
<path fill="none" stroke="#000000" d="M82,-122.1061C82,-141.3391 82,-169 82,-169 82,-169 176.1623,-169 176.1623,-169"/>
<polygon fill="#000000" stroke="#000000" points="176.1623,-172.5001 186.1623,-169 176.1622,-165.5001 176.1623,-172.5001"/>
</g>
<!-- BarHomeComponent -->
<g id="node6" class="node">
<title>BarHomeComponent</title>
<polygon fill="#ffffb3" stroke="#000000" points="1649.7562,-122 1514.2438,-122 1514.2438,-86 1649.7562,-86 1649.7562,-122"/>
<text text-anchor="middle" x="1582" y="-99.8" font-family="Times,serif" font-size="14.00" fill="#000000">BarHomeComponent</text>
</g>
<!-- ComponentsModule -->
<g id="node13" class="node">
<title>ComponentsModule</title>
<polygon fill="#8dd3c7" stroke="#000000" points="1142.3272,-187 1139.3272,-191 1118.3272,-191 1115.3272,-187 1011.6728,-187 1011.6728,-151 1142.3272,-151 1142.3272,-187"/>
<text text-anchor="middle" x="1077" y="-164.8" font-family="Times,serif" font-size="14.00" fill="#000000">ComponentsModule</text>
</g>
<!-- BarHomeComponent&#45;&gt;ComponentsModule -->
<g id="edge5" class="edge">
<title>BarHomeComponent&#45;&gt;ComponentsModule</title>
<path fill="none" stroke="#000000" d="M1518.747,-122.0225C1518.747,-139.3734 1518.747,-163 1518.747,-163 1518.747,-163 1152.1813,-163 1152.1813,-163"/>
<polygon fill="#000000" stroke="#000000" points="1152.1813,-159.5001 1142.1813,-163 1152.1813,-166.5001 1152.1813,-159.5001"/>
</g>
<!-- DescriptionComponent -->
<g id="node7" class="node">
<title>DescriptionComponent</title>
<polygon fill="#ffffb3" stroke="#000000" points="1496.1456,-122 1349.8544,-122 1349.8544,-86 1496.1456,-86 1496.1456,-122"/>
<text text-anchor="middle" x="1423" y="-99.8" font-family="Times,serif" font-size="14.00" fill="#000000">DescriptionComponent</text>
</g>
<!-- DescriptionComponent&#45;&gt;ComponentsModule -->
<g id="edge6" class="edge">
<title>DescriptionComponent&#45;&gt;ComponentsModule</title>
<path fill="none" stroke="#000000" d="M1449.1909,-122.2396C1449.1909,-137.5706 1449.1909,-157 1449.1909,-157 1449.1909,-157 1152.2566,-157 1152.2566,-157"/>
<polygon fill="#000000" stroke="#000000" points="1152.2566,-153.5001 1142.2566,-157 1152.2566,-160.5001 1152.2566,-153.5001"/>
</g>
<!-- FeedbackUsuarioComponent -->
<g id="node8" class="node">
<title>FeedbackUsuarioComponent</title>
<polygon fill="#ffffb3" stroke="#000000" points="1331.7906,-122 1152.2094,-122 1152.2094,-86 1331.7906,-86 1331.7906,-122"/>
<text text-anchor="middle" x="1242" y="-99.8" font-family="Times,serif" font-size="14.00" fill="#000000">FeedbackUsuarioComponent</text>
</g>
<!-- FeedbackUsuarioComponent&#45;&gt;ComponentsModule -->
<g id="edge7" class="edge">
<title>FeedbackUsuarioComponent&#45;&gt;ComponentsModule</title>
<path fill="none" stroke="#000000" d="M1152.0028,-104C1143.7821,-104 1138.4677,-104 1138.4677,-104 1138.4677,-104 1138.4677,-140.8939 1138.4677,-140.8939"/>
<polygon fill="#000000" stroke="#000000" points="1134.9678,-140.8938 1138.4677,-150.8939 1141.9678,-140.8939 1134.9678,-140.8938"/>
</g>
<!-- HomeComponent -->
<g id="node9" class="node">
<title>HomeComponent</title>
<polygon fill="#ffffb3" stroke="#000000" points="1134.5451,-122 1019.4549,-122 1019.4549,-86 1134.5451,-86 1134.5451,-122"/>
<text text-anchor="middle" x="1077" y="-99.8" font-family="Times,serif" font-size="14.00" fill="#000000">HomeComponent</text>
</g>
<!-- HomeComponent&#45;&gt;ComponentsModule -->
<g id="edge8" class="edge">
<title>HomeComponent&#45;&gt;ComponentsModule</title>
<path fill="none" stroke="#000000" d="M1077,-122.1061C1077,-122.1061 1077,-140.991 1077,-140.991"/>
<polygon fill="#000000" stroke="#000000" points="1073.5001,-140.9909 1077,-150.991 1080.5001,-140.991 1073.5001,-140.9909"/>
</g>
<!-- ListComicsComponent -->
<g id="node10" class="node">
<title>ListComicsComponent</title>
<polygon fill="#ffffb3" stroke="#000000" points="1000.8878,-122 855.1122,-122 855.1122,-86 1000.8878,-86 1000.8878,-122"/>
<text text-anchor="middle" x="928" y="-99.8" font-family="Times,serif" font-size="14.00" fill="#000000">ListComicsComponent</text>
</g>
<!-- ListComicsComponent&#45;&gt;ComponentsModule -->
<g id="edge9" class="edge">
<title>ListComicsComponent&#45;&gt;ComponentsModule</title>
<path fill="none" stroke="#000000" d="M1001.0781,-104C1009.7142,-104 1015.5323,-104 1015.5323,-104 1015.5323,-104 1015.5323,-140.8939 1015.5323,-140.8939"/>
<polygon fill="#000000" stroke="#000000" points="1012.0323,-140.8938 1015.5323,-150.8939 1019.0323,-140.8939 1012.0323,-140.8938"/>
</g>
<!-- QuantidadeComicsComponent -->
<g id="node11" class="node">
<title>QuantidadeComicsComponent</title>
<polygon fill="#ffffb3" stroke="#000000" points="837.1413,-122 648.8587,-122 648.8587,-86 837.1413,-86 837.1413,-122"/>
<text text-anchor="middle" x="743" y="-99.8" font-family="Times,serif" font-size="14.00" fill="#000000">QuantidadeComicsComponent</text>
</g>
<!-- QuantidadeComicsComponent&#45;&gt;ComponentsModule -->
<g id="edge10" class="edge">
<title>QuantidadeComicsComponent&#45;&gt;ComponentsModule</title>
<path fill="none" stroke="#000000" d="M770.9402,-122.2396C770.9402,-137.5706 770.9402,-157 770.9402,-157 770.9402,-157 1001.7179,-157 1001.7179,-157"/>
<polygon fill="#000000" stroke="#000000" points="1001.7179,-160.5001 1011.7179,-157 1001.7179,-153.5001 1001.7179,-160.5001"/>
</g>
<!-- ShowComicsComponent -->
<g id="node12" class="node">
<title>ShowComicsComponent</title>
<polygon fill="#ffffb3" stroke="#000000" points="630.9986,-122 475.0014,-122 475.0014,-86 630.9986,-86 630.9986,-122"/>
<text text-anchor="middle" x="553" y="-99.8" font-family="Times,serif" font-size="14.00" fill="#000000">ShowComicsComponent</text>
</g>
<!-- ShowComicsComponent&#45;&gt;ComponentsModule -->
<g id="edge11" class="edge">
<title>ShowComicsComponent&#45;&gt;ComponentsModule</title>
<path fill="none" stroke="#000000" d="M626.3743,-122.0336C626.3743,-139.0597 626.3743,-162 626.3743,-162 626.3743,-162 1001.4752,-162 1001.4752,-162"/>
<polygon fill="#000000" stroke="#000000" points="1001.4752,-165.5001 1011.4752,-162 1001.4751,-158.5001 1001.4752,-165.5001"/>
</g>
<!-- BarHomeComponent  -->
<g id="node14" class="node">
<title>BarHomeComponent </title>
<polygon fill="#fb8072" stroke="#000000" points="1662.7562,-252 1523.2438,-252 1523.2438,-216 1662.7562,-216 1662.7562,-252"/>
<text text-anchor="middle" x="1593" y="-229.8" font-family="Times,serif" font-size="14.00" fill="#000000">BarHomeComponent </text>
</g>
<!-- ComponentsModule&#45;&gt;BarHomeComponent  -->
<g id="edge12" class="edge">
<title>ComponentsModule&#45;&gt;BarHomeComponent </title>
<path fill="none" stroke="#000000" stroke-dasharray="5,2" d="M1142.3214,-169C1279.8368,-169 1586.625,-169 1586.625,-169 1586.625,-169 1586.625,-205.8939 1586.625,-205.8939"/>
<polygon fill="#000000" stroke="#000000" points="1583.1251,-205.8938 1586.625,-215.8939 1590.1251,-205.8939 1583.1251,-205.8938"/>
</g>
<!-- DescriptionComponent  -->
<g id="node15" class="node">
<title>DescriptionComponent </title>
<polygon fill="#fb8072" stroke="#000000" points="1505.1453,-252 1354.8547,-252 1354.8547,-216 1505.1453,-216 1505.1453,-252"/>
<text text-anchor="middle" x="1430" y="-229.8" font-family="Times,serif" font-size="14.00" fill="#000000">DescriptionComponent </text>
</g>
<!-- ComponentsModule&#45;&gt;DescriptionComponent  -->
<g id="edge13" class="edge">
<title>ComponentsModule&#45;&gt;DescriptionComponent </title>
<path fill="none" stroke="#000000" stroke-dasharray="5,2" d="M1142.3895,-175C1237.3121,-175 1402.0591,-175 1402.0591,-175 1402.0591,-175 1402.0591,-205.9775 1402.0591,-205.9775"/>
<polygon fill="#000000" stroke="#000000" points="1398.5592,-205.9774 1402.0591,-215.9775 1405.5592,-205.9775 1398.5592,-205.9774"/>
</g>
<!-- FeedbackUsuarioComponent  -->
<g id="node16" class="node">
<title>FeedbackUsuarioComponent </title>
<polygon fill="#fb8072" stroke="#000000" points="1337.2905,-252 1154.7095,-252 1154.7095,-216 1337.2905,-216 1337.2905,-252"/>
<text text-anchor="middle" x="1246" y="-229.8" font-family="Times,serif" font-size="14.00" fill="#000000">FeedbackUsuarioComponent </text>
</g>
<!-- ComponentsModule&#45;&gt;FeedbackUsuarioComponent  -->
<g id="edge14" class="edge">
<title>ComponentsModule&#45;&gt;FeedbackUsuarioComponent </title>
<path fill="none" stroke="#000000" stroke-dasharray="5,2" d="M1142.1802,-181C1188.7211,-181 1243.125,-181 1243.125,-181 1243.125,-181 1243.125,-205.7604 1243.125,-205.7604"/>
<polygon fill="#000000" stroke="#000000" points="1239.6251,-205.7604 1243.125,-215.7604 1246.6251,-205.7604 1239.6251,-205.7604"/>
</g>
<!-- HomeComponent  -->
<g id="node17" class="node">
<title>HomeComponent </title>
<polygon fill="#fb8072" stroke="#000000" points="1136.5442,-252 1017.4558,-252 1017.4558,-216 1136.5442,-216 1136.5442,-252"/>
<text text-anchor="middle" x="1077" y="-229.8" font-family="Times,serif" font-size="14.00" fill="#000000">HomeComponent </text>
</g>
<!-- ComponentsModule&#45;&gt;HomeComponent  -->
<g id="edge15" class="edge">
<title>ComponentsModule&#45;&gt;HomeComponent </title>
<path fill="none" stroke="#000000" stroke-dasharray="5,2" d="M1077,-187.1061C1077,-187.1061 1077,-205.991 1077,-205.991"/>
<polygon fill="#000000" stroke="#000000" points="1073.5001,-205.9909 1077,-215.991 1080.5001,-205.991 1073.5001,-205.9909"/>
</g>
<!-- ListComicsComponent  -->
<g id="node18" class="node">
<title>ListComicsComponent </title>
<polygon fill="#fb8072" stroke="#000000" points="999.8883,-252 850.1117,-252 850.1117,-216 999.8883,-216 999.8883,-252"/>
<text text-anchor="middle" x="925" y="-229.8" font-family="Times,serif" font-size="14.00" fill="#000000">ListComicsComponent </text>
</g>
<!-- ComponentsModule&#45;&gt;ListComicsComponent  -->
<g id="edge16" class="edge">
<title>ComponentsModule&#45;&gt;ListComicsComponent </title>
<path fill="none" stroke="#000000" stroke-dasharray="5,2" d="M1011.8076,-177C971.4867,-177 927.375,-177 927.375,-177 927.375,-177 927.375,-205.9648 927.375,-205.9648"/>
<polygon fill="#000000" stroke="#000000" points="923.8751,-205.9648 927.375,-215.9648 930.8751,-205.9649 923.8751,-205.9648"/>
</g>
<!-- QuantidadeComicsComponent  -->
<g id="node19" class="node">
<title>QuantidadeComicsComponent </title>
<polygon fill="#fb8072" stroke="#000000" points="832.1411,-252 639.8589,-252 639.8589,-216 832.1411,-216 832.1411,-252"/>
<text text-anchor="middle" x="736" y="-229.8" font-family="Times,serif" font-size="14.00" fill="#000000">QuantidadeComicsComponent </text>
</g>
<!-- ComponentsModule&#45;&gt;QuantidadeComicsComponent  -->
<g id="edge17" class="edge">
<title>ComponentsModule&#45;&gt;QuantidadeComicsComponent </title>
<path fill="none" stroke="#000000" stroke-dasharray="5,2" d="M1011.7769,-172C906.2611,-172 709.8098,-172 709.8098,-172 709.8098,-172 709.8098,-205.7333 709.8098,-205.7333"/>
<polygon fill="#000000" stroke="#000000" points="706.3099,-205.7333 709.8098,-215.7333 713.3099,-205.7333 706.3099,-205.7333"/>
</g>
<!-- ShowComicsComponent  -->
<g id="node20" class="node">
<title>ShowComicsComponent </title>
<polygon fill="#fb8072" stroke="#000000" points="621.9994,-252 462.0006,-252 462.0006,-216 621.9994,-216 621.9994,-252"/>
<text text-anchor="middle" x="542" y="-229.8" font-family="Times,serif" font-size="14.00" fill="#000000">ShowComicsComponent </text>
</g>
<!-- ComponentsModule&#45;&gt;ShowComicsComponent  -->
<g id="edge18" class="edge">
<title>ComponentsModule&#45;&gt;ShowComicsComponent </title>
<path fill="none" stroke="#000000" stroke-dasharray="5,2" d="M1011.65,-167C870.216,-167 548.375,-167 548.375,-167 548.375,-167 548.375,-205.692 548.375,-205.692"/>
<polygon fill="#000000" stroke="#000000" points="544.8751,-205.6919 548.375,-215.692 551.8751,-205.692 544.8751,-205.6919"/>
</g>
</g>
</svg>
