<?xml version="1.0" encoding="UTF-8" standalone="no"?>
<!DOCTYPE svg PUBLIC "-//W3C//DTD SVG 1.1//EN"
 "http://www.w3.org/Graphics/SVG/1.1/DTD/svg11.dtd">
<!-- Generated by graphviz version 2.40.1 (20161225.0304)
 -->
<!-- Title: dependencies Pages: 1 -->
<svg width="2327pt" height="284pt"
 viewBox="0.00 0.00 2327.00 284.00" xmlns="http://www.w3.org/2000/svg" xmlns:xlink="http://www.w3.org/1999/xlink">
<g id="graph0" class="graph" transform="scale(1 1) rotate(0) translate(4 280)">
<title>dependencies</title>
<polygon fill="#ffffff" stroke="transparent" points="-4,4 -4,-280 2323,-280 2323,4 -4,4"/>
<text text-anchor="start" x="1138.5091" y="-42.4" font-family="sans-serif" font-weight="bold" font-size="14.00" fill="#000000">Legend</text>
<polygon fill="#ffffb3" stroke="transparent" points="925.5,-10 925.5,-30 945.5,-30 945.5,-10 925.5,-10"/>
<text text-anchor="start" x="949.129" y="-15.4" font-family="sans-serif" font-size="14.00" fill="#000000"> &#160;Declarations</text>
<polygon fill="#8dd3c7" stroke="transparent" points="1038.5,-10 1038.5,-30 1058.5,-30 1058.5,-10 1038.5,-10"/>
<text text-anchor="start" x="1062.2251" y="-15.4" font-family="sans-serif" font-size="14.00" fill="#000000"> &#160;Module</text>
<polygon fill="#80b1d3" stroke="transparent" points="1124.5,-10 1124.5,-30 1144.5,-30 1144.5,-10 1124.5,-10"/>
<text text-anchor="start" x="1148.2812" y="-15.4" font-family="sans-serif" font-size="14.00" fill="#000000"> &#160;Bootstrap</text>
<polygon fill="#fdb462" stroke="transparent" points="1221.5,-10 1221.5,-30 1241.5,-30 1241.5,-10 1221.5,-10"/>
<text text-anchor="start" x="1245.1732" y="-15.4" font-family="sans-serif" font-size="14.00" fill="#000000"> &#160;Providers</text>
<polygon fill="#fb8072" stroke="transparent" points="1317.5,-10 1317.5,-30 1337.5,-30 1337.5,-10 1317.5,-10"/>
<text text-anchor="start" x="1341.2258" y="-15.4" font-family="sans-serif" font-size="14.00" fill="#000000"> &#160;Exports</text>
<g id="clust1" class="cluster">
<title>cluster_AppModule</title>
<polygon fill="none" stroke="#000000" stroke-dasharray="1,5" points="8,-70 8,-268 438,-268 438,-70 8,-70"/>
</g>
<g id="clust2" class="cluster">
<title>cluster_AppModule_declarations</title>
<polygon fill="none" stroke="#000000" points="308,-78 308,-130 430,-130 430,-78 308,-78"/>
</g>
<g id="clust4" class="cluster">
<title>cluster_AppModule_imports</title>
<polygon fill="none" stroke="#000000" points="156,-78 156,-130 300,-130 300,-78 156,-78"/>
</g>
<g id="clust6" class="cluster">
<title>cluster_AppModule_bootstrap</title>
<polygon fill="none" stroke="#000000" points="166,-208 166,-260 290,-260 290,-208 166,-208"/>
</g>
<g id="clust7" class="cluster">
<title>cluster_AppModule_providers</title>
<polygon fill="none" stroke="#000000" points="16,-78 16,-130 148,-130 148,-78 16,-78"/>
</g>
<g id="clust14" class="cluster">
<title>cluster_ComponentsModule</title>
<polygon fill="none" stroke="#000000" stroke-dasharray="1,5" points="446,-70 446,-268 2311,-268 2311,-70 446,-70"/>
</g>
<g id="clust15" class="cluster">
<title>cluster_ComponentsModule_declarations</title>
<polygon fill="none" stroke="#000000" points="454,-78 454,-130 2303,-130 2303,-78 454,-78"/>
</g>
<g id="clust28" class="cluster">
<title>cluster_ComponentsModule_exports</title>
<polygon fill="none" stroke="#000000" points="505,-208 505,-260 2252,-260 2252,-208 505,-208"/>
</g>
<!-- AppComponent -->
<g id="node1" class="node">
<title>AppComponent</title>
<polygon fill="#ffffb3" stroke="#000000" points="421.9399,-122 316.0601,-122 316.0601,-86 421.9399,-86 421.9399,-122"/>
<text text-anchor="middle" x="369" y="-99.8" font-family="Times,serif" font-size="14.00" fill="#000000">AppComponent</text>
</g>
<!-- AppModule -->
<g id="node2" class="node">
<title>AppModule</title>
<polygon fill="#8dd3c7" stroke="#000000" points="269.6571,-187 266.6571,-191 245.6571,-191 242.6571,-187 186.3429,-187 186.3429,-151 269.6571,-151 269.6571,-187"/>
<text text-anchor="middle" x="228" y="-164.8" font-family="Times,serif" font-size="14.00" fill="#000000">AppModule</text>
</g>
<!-- AppComponent&#45;&gt;AppModule -->
<g id="edge1" class="edge">
<title>AppComponent&#45;&gt;AppModule</title>
<path fill="none" stroke="#000000" d="M369,-122.1532C369,-145.7566 369,-184 369,-184 369,-184 279.9229,-184 279.9229,-184"/>
<polygon fill="#000000" stroke="#000000" points="279.9229,-180.5001 269.9229,-184 279.9229,-187.5001 279.9229,-180.5001"/>
</g>
<!-- AppComponent  -->
<g id="node4" class="node">
<title>AppComponent </title>
<polygon fill="#80b1d3" stroke="#000000" points="282.439,-252 173.561,-252 173.561,-216 282.439,-216 282.439,-252"/>
<text text-anchor="middle" x="228" y="-229.8" font-family="Times,serif" font-size="14.00" fill="#000000">AppComponent </text>
</g>
<!-- AppModule&#45;&gt;AppComponent  -->
<g id="edge3" class="edge">
<title>AppModule&#45;&gt;AppComponent </title>
<path fill="none" stroke="#000000" stroke-dasharray="1,5" d="M228,-187.1061C228,-187.1061 228,-205.991 228,-205.991"/>
<polygon fill="#000000" stroke="#000000" points="224.5001,-205.9909 228,-215.991 231.5001,-205.991 224.5001,-205.9909"/>
</g>
<!-- AppRoutingModule -->
<g id="node3" class="node">
<title>AppRoutingModule</title>
<polygon fill="#8dd3c7" stroke="#000000" points="292.2744,-122 289.2744,-126 268.2744,-126 265.2744,-122 163.7256,-122 163.7256,-86 292.2744,-86 292.2744,-122"/>
<text text-anchor="middle" x="228" y="-99.8" font-family="Times,serif" font-size="14.00" fill="#000000">AppRoutingModule</text>
</g>
<!-- AppRoutingModule&#45;&gt;AppModule -->
<g id="edge2" class="edge">
<title>AppRoutingModule&#45;&gt;AppModule</title>
<path fill="none" stroke="#000000" d="M228,-122.1061C228,-122.1061 228,-140.991 228,-140.991"/>
<polygon fill="#000000" stroke="#000000" points="224.5001,-140.9909 228,-150.991 231.5001,-140.991 224.5001,-140.9909"/>
</g>
<!-- DataService -->
<g id="node5" class="node">
<title>DataService</title>
<ellipse fill="#fdb462" stroke="#000000" cx="82" cy="-104" rx="58.4415" ry="18"/>
<text text-anchor="middle" x="82" y="-99.8" font-family="Times,serif" font-size="14.00" fill="#000000">DataService</text>
</g>
<!-- DataService&#45;&gt;AppModule -->
<g id="edge4" class="edge">
<title>DataService&#45;&gt;AppModule</title>
<path fill="none" stroke="#000000" d="M82,-122.1061C82,-141.3391 82,-169 82,-169 82,-169 176.1623,-169 176.1623,-169"/>
<polygon fill="#000000" stroke="#000000" points="176.1623,-172.5001 186.1623,-169 176.1622,-165.5001 176.1623,-172.5001"/>
</g>
<!-- BarHomeComponent -->
<g id="node6" class="node">
<title>BarHomeComponent</title>
<polygon fill="#ffffb3" stroke="#000000" points="2294.7562,-122 2159.2438,-122 2159.2438,-86 2294.7562,-86 2294.7562,-122"/>
<text text-anchor="middle" x="2227" y="-99.8" font-family="Times,serif" font-size="14.00" fill="#000000">BarHomeComponent</text>
</g>
<!-- ComponentsModule -->
<g id="node17" class="node">
<title>ComponentsModule</title>
<polygon fill="#8dd3c7" stroke="#000000" points="1441.3272,-187 1438.3272,-191 1417.3272,-191 1414.3272,-187 1310.6728,-187 1310.6728,-151 1441.3272,-151 1441.3272,-187"/>
<text text-anchor="middle" x="1376" y="-164.8" font-family="Times,serif" font-size="14.00" fill="#000000">ComponentsModule</text>
</g>
<!-- BarHomeComponent&#45;&gt;ComponentsModule -->
<g id="edge5" class="edge">
<title>BarHomeComponent&#45;&gt;ComponentsModule</title>
<path fill="none" stroke="#000000" d="M2201.375,-122.2222C2201.375,-140.8285 2201.375,-167 2201.375,-167 2201.375,-167 1451.4557,-167 1451.4557,-167"/>
<polygon fill="#000000" stroke="#000000" points="1451.4557,-163.5001 1441.4557,-167 1451.4557,-170.5001 1451.4557,-163.5001"/>
</g>
<!-- ConfirmPagamentoComponent -->
<g id="node7" class="node">
<title>ConfirmPagamentoComponent</title>
<polygon fill="#ffffb3" stroke="#000000" points="2141.479,-122 1950.521,-122 1950.521,-86 2141.479,-86 2141.479,-122"/>
<text text-anchor="middle" x="2046" y="-99.8" font-family="Times,serif" font-size="14.00" fill="#000000">ConfirmPagamentoComponent</text>
</g>
<!-- ConfirmPagamentoComponent&#45;&gt;ComponentsModule -->
<g id="edge6" class="edge">
<title>ConfirmPagamentoComponent&#45;&gt;ComponentsModule</title>
<path fill="none" stroke="#000000" d="M2018.375,-122.0225C2018.375,-139.3734 2018.375,-163 2018.375,-163 2018.375,-163 1451.4277,-163 1451.4277,-163"/>
<polygon fill="#000000" stroke="#000000" points="1451.4278,-159.5001 1441.4277,-163 1451.4277,-166.5001 1451.4278,-159.5001"/>
</g>
<!-- DescriptionComponent -->
<g id="node8" class="node">
<title>DescriptionComponent</title>
<polygon fill="#ffffb3" stroke="#000000" points="1932.1456,-122 1785.8544,-122 1785.8544,-86 1932.1456,-86 1932.1456,-122"/>
<text text-anchor="middle" x="1859" y="-99.8" font-family="Times,serif" font-size="14.00" fill="#000000">DescriptionComponent</text>
</g>
<!-- DescriptionComponent&#45;&gt;ComponentsModule -->
<g id="edge7" class="edge">
<title>DescriptionComponent&#45;&gt;ComponentsModule</title>
<path fill="none" stroke="#000000" d="M1829.875,-122.0091C1829.875,-138.0494 1829.875,-159 1829.875,-159 1829.875,-159 1451.5126,-159 1451.5126,-159"/>
<polygon fill="#000000" stroke="#000000" points="1451.5126,-155.5001 1441.5126,-159 1451.5126,-162.5001 1451.5126,-155.5001"/>
</g>
<!-- FeedbackUsuarioComponent -->
<g id="node9" class="node">
<title>FeedbackUsuarioComponent</title>
<polygon fill="#ffffb3" stroke="#000000" points="1767.7906,-122 1588.2094,-122 1588.2094,-86 1767.7906,-86 1767.7906,-122"/>
<text text-anchor="middle" x="1678" y="-99.8" font-family="Times,serif" font-size="14.00" fill="#000000">FeedbackUsuarioComponent</text>
</g>
<!-- FeedbackUsuarioComponent&#45;&gt;ComponentsModule -->
<g id="edge8" class="edge">
<title>FeedbackUsuarioComponent&#45;&gt;ComponentsModule</title>
<path fill="none" stroke="#000000" d="M1647.375,-122.1243C1647.375,-136.7832 1647.375,-155 1647.375,-155 1647.375,-155 1451.3464,-155 1451.3464,-155"/>
<polygon fill="#000000" stroke="#000000" points="1451.3465,-151.5001 1441.3464,-155 1451.3464,-158.5001 1451.3465,-151.5001"/>
</g>
<!-- FooterComponent -->
<g id="node10" class="node">
<title>FooterComponent</title>
<polygon fill="#ffffb3" stroke="#000000" points="1569.8809,-122 1452.1191,-122 1452.1191,-86 1569.8809,-86 1569.8809,-122"/>
<text text-anchor="middle" x="1511" y="-99.8" font-family="Times,serif" font-size="14.00" fill="#000000">FooterComponent</text>
</g>
<!-- FooterComponent&#45;&gt;ComponentsModule -->
<g id="edge9" class="edge">
<title>FooterComponent&#45;&gt;ComponentsModule</title>
<path fill="none" stroke="#000000" d="M1451.9954,-104C1443.447,-104 1437.4677,-104 1437.4677,-104 1437.4677,-104 1437.4677,-140.8939 1437.4677,-140.8939"/>
<polygon fill="#000000" stroke="#000000" points="1433.9678,-140.8938 1437.4677,-150.8939 1440.9678,-140.8939 1433.9678,-140.8938"/>
</g>
<!-- HomeComponent -->
<g id="node11" class="node">
<title>HomeComponent</title>
<polygon fill="#ffffb3" stroke="#000000" points="1433.5451,-122 1318.4549,-122 1318.4549,-86 1433.5451,-86 1433.5451,-122"/>
<text text-anchor="middle" x="1376" y="-99.8" font-family="Times,serif" font-size="14.00" fill="#000000">HomeComponent</text>
</g>
<!-- HomeComponent&#45;&gt;ComponentsModule -->
<g id="edge10" class="edge">
<title>HomeComponent&#45;&gt;ComponentsModule</title>
<path fill="none" stroke="#000000" d="M1376,-122.1061C1376,-122.1061 1376,-140.991 1376,-140.991"/>
<polygon fill="#000000" stroke="#000000" points="1372.5001,-140.9909 1376,-150.991 1379.5001,-140.991 1372.5001,-140.9909"/>
</g>
<!-- ListComicsComponent -->
<g id="node12" class="node">
<title>ListComicsComponent</title>
<polygon fill="#ffffb3" stroke="#000000" points="1299.8878,-122 1154.1122,-122 1154.1122,-86 1299.8878,-86 1299.8878,-122"/>
<text text-anchor="middle" x="1227" y="-99.8" font-family="Times,serif" font-size="14.00" fill="#000000">ListComicsComponent</text>
</g>
<!-- ListComicsComponent&#45;&gt;ComponentsModule -->
<g id="edge11" class="edge">
<title>ListComicsComponent&#45;&gt;ComponentsModule</title>
<path fill="none" stroke="#000000" d="M1300.0781,-104C1308.7142,-104 1314.5323,-104 1314.5323,-104 1314.5323,-104 1314.5323,-140.8939 1314.5323,-140.8939"/>
<polygon fill="#000000" stroke="#000000" points="1311.0323,-140.8938 1314.5323,-150.8939 1318.0323,-140.8939 1311.0323,-140.8938"/>
</g>
<!-- NumberPikerComponent -->
<g id="node13" class="node">
<title>NumberPikerComponent</title>
<polygon fill="#ffffb3" stroke="#000000" points="1136.2534,-122 979.7466,-122 979.7466,-86 1136.2534,-86 1136.2534,-122"/>
<text text-anchor="middle" x="1058" y="-99.8" font-family="Times,serif" font-size="14.00" fill="#000000">NumberPikerComponent</text>
</g>
<!-- NumberPikerComponent&#45;&gt;ComponentsModule -->
<g id="edge12" class="edge">
<title>NumberPikerComponent&#45;&gt;ComponentsModule</title>
<path fill="none" stroke="#000000" d="M1088.625,-122.1243C1088.625,-136.7832 1088.625,-155 1088.625,-155 1088.625,-155 1300.7902,-155 1300.7902,-155"/>
<polygon fill="#000000" stroke="#000000" points="1300.7902,-158.5001 1310.7902,-155 1300.7901,-151.5001 1300.7902,-158.5001"/>
</g>
<!-- QuantidadeComicsComponent -->
<g id="node14" class="node">
<title>QuantidadeComicsComponent</title>
<polygon fill="#ffffb3" stroke="#000000" points="961.1413,-122 772.8587,-122 772.8587,-86 961.1413,-86 961.1413,-122"/>
<text text-anchor="middle" x="867" y="-99.8" font-family="Times,serif" font-size="14.00" fill="#000000">QuantidadeComicsComponent</text>
</g>
<!-- QuantidadeComicsComponent&#45;&gt;ComponentsModule -->
<g id="edge13" class="edge">
<title>QuantidadeComicsComponent&#45;&gt;ComponentsModule</title>
<path fill="none" stroke="#000000" d="M896.125,-122.0091C896.125,-138.0494 896.125,-159 896.125,-159 896.125,-159 1300.7825,-159 1300.7825,-159"/>
<polygon fill="#000000" stroke="#000000" points="1300.7825,-162.5001 1310.7825,-159 1300.7825,-155.5001 1300.7825,-162.5001"/>
</g>
<!-- RatingComponent -->
<g id="node15" class="node">
<title>RatingComponent</title>
<polygon fill="#ffffb3" stroke="#000000" points="754.1653,-122 635.8347,-122 635.8347,-86 754.1653,-86 754.1653,-122"/>
<text text-anchor="middle" x="695" y="-99.8" font-family="Times,serif" font-size="14.00" fill="#000000">RatingComponent</text>
</g>
<!-- RatingComponent&#45;&gt;ComponentsModule -->
<g id="edge14" class="edge">
<title>RatingComponent&#45;&gt;ComponentsModule</title>
<path fill="none" stroke="#000000" d="M722.625,-122.0336C722.625,-139.0597 722.625,-162 722.625,-162 722.625,-162 1300.6621,-162 1300.6621,-162"/>
<polygon fill="#000000" stroke="#000000" points="1300.6621,-165.5001 1310.6621,-162 1300.662,-158.5001 1300.6621,-165.5001"/>
</g>
<!-- ShowComicsComponent -->
<g id="node16" class="node">
<title>ShowComicsComponent</title>
<polygon fill="#ffffb3" stroke="#000000" points="617.9986,-122 462.0014,-122 462.0014,-86 617.9986,-86 617.9986,-122"/>
<text text-anchor="middle" x="540" y="-99.8" font-family="Times,serif" font-size="14.00" fill="#000000">ShowComicsComponent</text>
</g>
<!-- ShowComicsComponent&#45;&gt;ComponentsModule -->
<g id="edge15" class="edge">
<title>ShowComicsComponent&#45;&gt;ComponentsModule</title>
<path fill="none" stroke="#000000" d="M565.625,-122.2667C565.625,-140.5552 565.625,-166 565.625,-166 565.625,-166 1300.7121,-166 1300.7121,-166"/>
<polygon fill="#000000" stroke="#000000" points="1300.7122,-169.5001 1310.7121,-166 1300.7121,-162.5001 1300.7122,-169.5001"/>
</g>
<!-- BarHomeComponent  -->
<g id="node18" class="node">
<title>BarHomeComponent </title>
<polygon fill="#fb8072" stroke="#000000" points="2243.7562,-252 2104.2438,-252 2104.2438,-216 2243.7562,-216 2243.7562,-252"/>
<text text-anchor="middle" x="2174" y="-229.8" font-family="Times,serif" font-size="14.00" fill="#000000">BarHomeComponent </text>
</g>
<!-- ComponentsModule&#45;&gt;BarHomeComponent  -->
<g id="edge16" class="edge">
<title>ComponentsModule&#45;&gt;BarHomeComponent </title>
<path fill="none" stroke="#000000" stroke-dasharray="5,2" d="M1441.3042,-171C1623.299,-171 2122.9308,-171 2122.9308,-171 2122.9308,-171 2122.9308,-205.7778 2122.9308,-205.7778"/>
<polygon fill="#000000" stroke="#000000" points="2119.4308,-205.7778 2122.9308,-215.7778 2126.4308,-205.7778 2119.4308,-205.7778"/>
</g>
<!-- ConfirmPagamentoComponent  -->
<g id="node19" class="node">
<title>ConfirmPagamentoComponent </title>
<polygon fill="#fb8072" stroke="#000000" points="2086.4796,-252 1891.5204,-252 1891.5204,-216 2086.4796,-216 2086.4796,-252"/>
<text text-anchor="middle" x="1989" y="-229.8" font-family="Times,serif" font-size="14.00" fill="#000000">ConfirmPagamentoComponent </text>
</g>
<!-- ComponentsModule&#45;&gt;ConfirmPagamentoComponent  -->
<g id="edge17" class="edge">
<title>ComponentsModule&#45;&gt;ConfirmPagamentoComponent </title>
<path fill="none" stroke="#000000" stroke-dasharray="5,2" d="M1441.1933,-175C1584.0493,-175 1912.0416,-175 1912.0416,-175 1912.0416,-175 1912.0416,-205.9775 1912.0416,-205.9775"/>
<polygon fill="#000000" stroke="#000000" points="1908.5416,-205.9774 1912.0416,-215.9775 1915.5416,-205.9775 1908.5416,-205.9774"/>
</g>
<!-- DescriptionComponent  -->
<g id="node20" class="node">
<title>DescriptionComponent </title>
<polygon fill="#fb8072" stroke="#000000" points="1874.1453,-252 1723.8547,-252 1723.8547,-216 1874.1453,-216 1874.1453,-252"/>
<text text-anchor="middle" x="1799" y="-229.8" font-family="Times,serif" font-size="14.00" fill="#000000">DescriptionComponent </text>
</g>
<!-- ComponentsModule&#45;&gt;DescriptionComponent  -->
<g id="edge18" class="edge">
<title>ComponentsModule&#45;&gt;DescriptionComponent </title>
<path fill="none" stroke="#000000" stroke-dasharray="5,2" d="M1441.2592,-179C1547.4175,-179 1745.7863,-179 1745.7863,-179 1745.7863,-179 1745.7863,-205.9909 1745.7863,-205.9909"/>
<polygon fill="#000000" stroke="#000000" points="1742.2864,-205.9909 1745.7863,-215.9909 1749.2864,-205.991 1742.2864,-205.9909"/>
</g>
<!-- FeedbackUsuarioComponent  -->
<g id="node21" class="node">
<title>FeedbackUsuarioComponent </title>
<polygon fill="#fb8072" stroke="#000000" points="1706.2905,-252 1523.7095,-252 1523.7095,-216 1706.2905,-216 1706.2905,-252"/>
<text text-anchor="middle" x="1615" y="-229.8" font-family="Times,serif" font-size="14.00" fill="#000000">FeedbackUsuarioComponent </text>
</g>
<!-- ComponentsModule&#45;&gt;FeedbackUsuarioComponent  -->
<g id="edge19" class="edge">
<title>ComponentsModule&#45;&gt;FeedbackUsuarioComponent </title>
<path fill="none" stroke="#000000" stroke-dasharray="5,2" d="M1441.5367,-183C1489.6955,-183 1546.7726,-183 1546.7726,-183 1546.7726,-183 1546.7726,-205.8757 1546.7726,-205.8757"/>
<polygon fill="#000000" stroke="#000000" points="1543.2727,-205.8757 1546.7726,-215.8757 1550.2727,-205.8757 1543.2727,-205.8757"/>
</g>
<!-- HomeComponent  -->
<g id="node22" class="node">
<title>HomeComponent </title>
<polygon fill="#fb8072" stroke="#000000" points="1505.5442,-252 1386.4558,-252 1386.4558,-216 1505.5442,-216 1505.5442,-252"/>
<text text-anchor="middle" x="1446" y="-229.8" font-family="Times,serif" font-size="14.00" fill="#000000">HomeComponent </text>
</g>
<!-- ComponentsModule&#45;&gt;HomeComponent  -->
<g id="edge20" class="edge">
<title>ComponentsModule&#45;&gt;HomeComponent </title>
<path fill="none" stroke="#000000" stroke-dasharray="5,2" d="M1413.8207,-187.1061C1413.8207,-187.1061 1413.8207,-205.991 1413.8207,-205.991"/>
<polygon fill="#000000" stroke="#000000" points="1410.3207,-205.9909 1413.8207,-215.991 1417.3207,-205.991 1410.3207,-205.9909"/>
</g>
<!-- ListComicsComponent  -->
<g id="node23" class="node">
<title>ListComicsComponent </title>
<polygon fill="#fb8072" stroke="#000000" points="1368.8883,-252 1219.1117,-252 1219.1117,-216 1368.8883,-216 1368.8883,-252"/>
<text text-anchor="middle" x="1294" y="-229.8" font-family="Times,serif" font-size="14.00" fill="#000000">ListComicsComponent </text>
</g>
<!-- ComponentsModule&#45;&gt;ListComicsComponent  -->
<g id="edge21" class="edge">
<title>ComponentsModule&#45;&gt;ListComicsComponent </title>
<path fill="none" stroke="#000000" stroke-dasharray="5,2" d="M1339.7653,-187.1061C1339.7653,-187.1061 1339.7653,-205.991 1339.7653,-205.991"/>
<polygon fill="#000000" stroke="#000000" points="1336.2653,-205.9909 1339.7653,-215.991 1343.2653,-205.991 1336.2653,-205.9909"/>
</g>
<!-- NumberPikerComponent  -->
<g id="node24" class="node">
<title>NumberPikerComponent </title>
<polygon fill="#fb8072" stroke="#000000" points="1201.2534,-252 1040.7466,-252 1040.7466,-216 1201.2534,-216 1201.2534,-252"/>
<text text-anchor="middle" x="1121" y="-229.8" font-family="Times,serif" font-size="14.00" fill="#000000">NumberPikerComponent </text>
</g>
<!-- ComponentsModule&#45;&gt;NumberPikerComponent  -->
<g id="edge22" class="edge">
<title>ComponentsModule&#45;&gt;NumberPikerComponent </title>
<path fill="none" stroke="#000000" stroke-dasharray="5,2" d="M1310.7588,-180C1252.9303,-180 1177.5914,-180 1177.5914,-180 1177.5914,-180 1177.5914,-205.7181 1177.5914,-205.7181"/>
<polygon fill="#000000" stroke="#000000" points="1174.0914,-205.718 1177.5914,-215.7181 1181.0914,-205.7181 1174.0914,-205.718"/>
</g>
<!-- QuantidadeComicsComponent  -->
<g id="node25" class="node">
<title>QuantidadeComicsComponent </title>
<polygon fill="#fb8072" stroke="#000000" points="1023.1411,-252 830.8589,-252 830.8589,-216 1023.1411,-216 1023.1411,-252"/>
<text text-anchor="middle" x="927" y="-229.8" font-family="Times,serif" font-size="14.00" fill="#000000">QuantidadeComicsComponent </text>
</g>
<!-- ComponentsModule&#45;&gt;QuantidadeComicsComponent  -->
<g id="edge23" class="edge">
<title>ComponentsModule&#45;&gt;QuantidadeComicsComponent </title>
<path fill="none" stroke="#000000" stroke-dasharray="5,2" d="M1310.7404,-177C1203.3998,-177 1001.347,-177 1001.347,-177 1001.347,-177 1001.347,-205.9648 1001.347,-205.9648"/>
<polygon fill="#000000" stroke="#000000" points="997.847,-205.9648 1001.347,-215.9648 1004.847,-205.9649 997.847,-205.9648"/>
</g>
<!-- RatingComponent  -->
<g id="node26" class="node">
<title>RatingComponent </title>
<polygon fill="#fb8072" stroke="#000000" points="813.1649,-252 690.8351,-252 690.8351,-216 813.1649,-216 813.1649,-252"/>
<text text-anchor="middle" x="752" y="-229.8" font-family="Times,serif" font-size="14.00" fill="#000000">RatingComponent </text>
</g>
<!-- ComponentsModule&#45;&gt;RatingComponent  -->
<g id="edge24" class="edge">
<title>ComponentsModule&#45;&gt;RatingComponent </title>
<path fill="none" stroke="#000000" stroke-dasharray="5,2" d="M1310.8062,-173C1158.6433,-173 792.881,-173 792.881,-173 792.881,-173 792.881,-205.698 792.881,-205.698"/>
<polygon fill="#000000" stroke="#000000" points="789.381,-205.698 792.881,-215.698 796.381,-205.698 789.381,-205.698"/>
</g>
<!-- ShowComicsComponent  -->
<g id="node27" class="node">
<title>ShowComicsComponent </title>
<polygon fill="#fb8072" stroke="#000000" points="672.9994,-252 513.0006,-252 513.0006,-216 672.9994,-216 672.9994,-252"/>
<text text-anchor="middle" x="593" y="-229.8" font-family="Times,serif" font-size="14.00" fill="#000000">ShowComicsComponent </text>
</g>
<!-- ComponentsModule&#45;&gt;ShowComicsComponent  -->
<g id="edge25" class="edge">
<title>ComponentsModule&#45;&gt;ShowComicsComponent </title>
<path fill="none" stroke="#000000" stroke-dasharray="5,2" d="M1310.6728,-169C1132.9972,-169 654.2085,-169 654.2085,-169 654.2085,-169 654.2085,-205.8939 654.2085,-205.8939"/>
<polygon fill="#000000" stroke="#000000" points="650.7085,-205.8938 654.2085,-215.8939 657.7085,-205.8939 650.7085,-205.8938"/>
</g>
</g>
</svg>
